<?xml version="1.0" encoding="UTF-8"?>
<!DOCTYPE svg PUBLIC "-//W3C//DTD SVG 1.1//EN" "http://www.w3.org/Graphics/SVG/1.1/DTD/svg11.dtd">
<!-- Creator: CorelDRAW Home & Student X6 -->
<svg xmlns="http://www.w3.org/2000/svg" xml:space="preserve" width="415mm" height="295mm" version="1.1" style="shape-rendering:geometricPrecision; text-rendering:geometricPrecision; image-rendering:optimizeQuality; fill-rule:evenodd; clip-rule:evenodd"
viewBox="0 0 41500 29500"
 xmlns:xlink="http://www.w3.org/1999/xlink">
 <defs>
  <style type="text/css">
   <![CDATA[
    .str6 {stroke:#2B2A29;stroke-width:10}
    .str12 {stroke:black;stroke-width:10}
    .str20 {stroke:#E4F3FF;stroke-width:10}
    .str22 {stroke:#E9F0FF;stroke-width:10}
    .str31 {stroke:#FFD560;stroke-width:10}
    .str39 {stroke:#FFD661;stroke-width:10}
    .str54 {stroke:#FFEB5B;stroke-width:10}
    .str51 {stroke:#FFF634;stroke-width:10}
    .str45 {stroke:#FFFF63;stroke-width:10}
    .str50 {stroke:white;stroke-width:10}
    .str4 {stroke:#2B2A29;stroke-width:20}
    .str0 {stroke:black;stroke-width:20}
    .str23 {stroke:#B1B1FA;stroke-width:20}
    .str26 {stroke:#B3B3FC;stroke-width:20}
    .str21 {stroke:#C6C6FA;stroke-width:20}
    .str18 {stroke:#E4F3FF;stroke-width:20}
    .str19 {stroke:#E9F0FF;stroke-width:20}
    .str24 {stroke:#ECEEFF;stroke-width:20}
    .str7 {stroke:#F39C55;stroke-width:20}
    .str25 {stroke:#F4F6FF;stroke-width:20}
    .str14 {stroke:#FFB769;stroke-width:20}
    .str17 {stroke:#FFBE3B;stroke-width:20}
    .str38 {stroke:#FFD560;stroke-width:20}
    .str13 {stroke:#FFD661;stroke-width:20}
    .str16 {stroke:#FFF42D;stroke-width:20}
    .str27 {stroke:#FFFF70;stroke-width:20}
    .str11 {stroke:white;stroke-width:20}
    .str41 {stroke:#2B2A29;stroke-width:25}
    .str52 {stroke:#F28D31;stroke-width:25}
    .str36 {stroke:#F39C55;stroke-width:25}
    .str43 {stroke:#F59B4F;stroke-width:25}
    .str10 {stroke:#FCB96D;stroke-width:25}
    .str29 {stroke:#FFB769;stroke-width:25}
    .str32 {stroke:#FFB86B;stroke-width:25}
    .str35 {stroke:#FFC08A;stroke-width:25}
    .str37 {stroke:#FFD560;stroke-width:25}
    .str33 {stroke:#FFEA5D;stroke-width:25}
    .str15 {stroke:#FFEB5B;stroke-width:25}
    .str28 {stroke:#FFFF70;stroke-width:25}
    .str34 {stroke:#FFFFC3;stroke-width:25}
    .str42 {stroke:#FFFFC9;stroke-width:25}
    .str1 {stroke:black;stroke-width:50}
    .str5 {stroke:#4D2626;stroke-width:50}
    .str8 {stroke:#6699FF;stroke-width:50}
    .str2 {stroke:#6D4D42;stroke-width:50}
    .str46 {stroke:#8C6943;stroke-width:50}
    .str44 {stroke:#8C6F51;stroke-width:50}
    .str47 {stroke:#F28D31;stroke-width:50}
    .str3 {stroke:#F39C55;stroke-width:50}
    .str49 {stroke:#FF8B1F;stroke-width:50}
    .str48 {stroke:#FF922D;stroke-width:50}
    .str9 {stroke:#FFD661;stroke-width:50}
    .str40 {stroke:#FFEB5B;stroke-width:50}
    .str30 {stroke:#99FFFF;stroke-width:100}
    .str53 {stroke:#F28D31;stroke-width:100}
    .fil0 {fill:none}
    .fil7 {fill:#7688A1}
    .fil1 {fill:#FEFEFE}
    .fil37 {fill:#4D2626}
    .fil2 {fill:#6D4D42}
    .fil38 {fill:#8F683E}
    .fil5 {fill:#99FFFF}
    .fil15 {fill:#C6C6FA}
    .fil17 {fill:#DEE4FF}
    .fil13 {fill:#E4F3FF}
    .fil14 {fill:#E9F0FF}
    .fil16 {fill:#ECEEFF}
    .fil29 {fill:#EFB65D}
    .fil36 {fill:#F28D31}
    .fil4 {fill:#F39C55}
    .fil18 {fill:#F4F6FF}
    .fil26 {fill:#F59B4F}
    .fil33 {fill:#FF99CC}
    .fil9 {fill:#FFB769}
    .fil21 {fill:#FFB86B}
    .fil12 {fill:#FFBE3B}
    .fil24 {fill:#FFC08A}
    .fil34 {fill:#FFC117}
    .fil31 {fill:#FFC526}
    .fil35 {fill:#FFC72D}
    .fil6 {fill:#FFCA8F}
    .fil32 {fill:#FFCD2D}
    .fil20 {fill:#FFD560}
    .fil8 {fill:#FFD661}
    .fil22 {fill:#FFEA5D}
    .fil10 {fill:#FFEB5B}
    .fil3 {fill:#FFF245}
    .fil27 {fill:#FFF344}
    .fil11 {fill:#FFF42D}
    .fil30 {fill:#FFF634}
    .fil28 {fill:#FFFF63}
    .fil19 {fill:#FFFF70}
    .fil23 {fill:#FFFFC3}
    .fil25 {fill:#FFFFC9}
   ]]>
  </style>
 </defs>
 <g id="Warstwa_x0020_1">
  <metadata id="CorelCorpID_0Corel-Layer"/>
  <path class="fil0 str0" d="M20657 17571c-34,-16 -339,-323 -346,-354l-21 -17c-154,-148 -985,-708 -472,-112 -89,-15 -192,-53 -320,-72 -541,-83 -1473,-621 -1772,-1076 -360,-549 -142,145 -157,221 -257,-173 -446,-346 -630,-600 -146,-202 -167,-364 -245,-529 -77,-164 -82,-295 -116,-373 -124,-284 -22,728 -172,17 -73,-346 -27,-1118 72,-1457 26,446 1222,1312 1621,1498 429,200 900,423 1357,573 554,182 1577,378 2155,337 637,-45 811,-59 1477,-209l39 -5"/>
  <path class="fil0 str0" d="M20593 17242c-44,238 336,933 382,780 141,-475 945,-865 905,-708 -48,188 -411,434 31,121 552,-391 850,-580 991,-1285 16,-81 -13,-474 -12,-479 68,-15 190,168 214,286 113,543 31,-495 23,-553"/>
  <ellipse class="fil0 str0" transform="matrix(0.998801 0.0489578 -0.0489578 0.998801 21264.7 13071.1)" rx="795" ry="331"/>
  <ellipse class="fil0 str0" transform="matrix(0.986621 -0.163032 0.163032 0.986621 21125 12885.7)" rx="282" ry="91"/>
  <ellipse class="fil0 str0" cx="18827" cy="11308" rx="166" ry="149"/>
  <ellipse class="fil0 str0" cx="23017" cy="11871" rx="166" ry="149"/>
  <ellipse class="fil0 str0" cx="19279" cy="11495" rx="760" ry="736"/>
  <ellipse class="fil0 str0" cx="23445" cy="12125" rx="641" ry="709"/>
  <path class="fil0 str0" d="M21492 8910c102,102 413,640 446,780 28,116 139,-85 192,-148 165,-195 385,-384 573,-557l17 -18"/>
  <path class="fil0 str0" d="M19002 9897c120,-222 513,-681 804,-571 194,73 203,178 307,355 107,184 -141,-93 -266,-120 -393,-85 -509,107 -808,343 -24,19 -55,26 -36,-8z"/>
  <path class="fil0 str0" d="M23747 9914c-57,40 -348,263 -236,315 73,34 394,-317 661,127 203,337 227,303 127,-6 -81,-247 -293,-616 -551,-436z"/>
  <ellipse class="fil0 str1" cx="18625" cy="10264" rx="74" ry="69"/>
  <ellipse class="fil0 str1" cx="18211" cy="10514" rx="74" ry="72"/>
  <ellipse class="fil0 str1" cx="17977" cy="10818" rx="61" ry="64"/>
  <path class="fil0 str1" d="M18632 10327c-111,67 -13,474 151,497"/>
  <path class="fil0 str1" d="M19398 12556c303,233 951,-494 960,-986 10,-492 -419,-986 -960,-986 -542,0 -1013,538 -981,986 6,87 51,430 97,507 96,161 289,147 458,204 165,56 305,183 426,276z"/>
  <path class="fil0 str1" d="M23528 11344c450,5 851,369 806,822 -73,730 -304,879 -822,806 -138,-20 -290,61 -403,-2 -254,-141 -404,-513 -402,-821 2,-445 373,-810 822,-806z"/>
  <ellipse class="fil0 str1" cx="24731" cy="11447" rx="77" ry="79"/>
  <circle class="fil0 str1" cx="24951" cy="11813" r="77"/>
  <circle class="fil0 str1" cx="24982" cy="12233" r="77"/>
  <path class="fil0 str1" d="M18613 12141c4,30 -94,-23 -154,-20 -139,6 -186,-14 -343,19 -13,3 -22,1 -36,1"/>
  <path class="fil0 str1" d="M19510 12599c-29,21 49,47 76,94 29,49 183,174 209,215"/>
  <path class="fil0 str1" d="M22811 13144c25,-59 323,-161 358,-153"/>
  <path class="fil0 str1" d="M23898 12985c-146,-46 237,-10 254,31"/>
  <path class="fil0 str2" d="M20911 12591c300,-94 671,-158 942,61"/>
  <path class="fil0 str1" d="M19196 13305c8,-57 156,-57 263,82 175,228 488,610 959,791 431,166 1208,277 1595,182 441,-108 568,-433 899,-650 96,-63 121,85 144,106"/>
  <path class="fil0 str1" d="M19703 13677c38,-34 712,272 1531,377 508,65 1061,-34 1397,-103"/>
  <path class="fil0 str1" d="M20015 8259c-318,113 -746,211 -1099,511 -458,389 -810,1020 -845,1454 -23,282 -83,359 -83,758 0,108 21,999 -30,969 -504,-299 -1304,-347 -1516,332 -69,221 -66,360 -66,466 0,155 14,249 112,532"/>
  <path class="fil0 str3" d="M16751 11865c179,-94 447,-699 500,-894 337,-1252 1336,-2854 2694,-3104 10,-2 -6,1 -5,2"/>
  <path class="fil0 str1" d="M23740 8541c22,15 185,145 187,146 250,87 726,1079 799,1362 148,574 92,1340 92,1976 0,357 291,1285 281,1323"/>
  <path class="fil1 str4" d="M22631 13951c-336,69 -889,168 -1397,103 -819,-105 -1493,-411 -1531,-377 177,187 414,386 715,502 431,166 1208,277 1595,182 295,-72 449,-241 618,-410z"/>
  <path class="fil2 str5" d="M23511 10229c73,34 394,-317 661,127 203,337 227,303 127,-6 -81,-247 -293,-616 -551,-436 -57,40 -348,263 -236,315z"/>
  <path class="fil2 str5" d="M20113 9682c-104,-178 -113,-282 -307,-355 -291,-110 -684,349 -804,571 -18,34 12,27 36,8 300,-236 415,-428 808,-343 125,27 374,304 266,120z"/>
  <path class="fil3 str6" d="M24951 11736c-42,0 -77,34 -77,77 0,42 34,77 77,77 42,0 77,-34 77,-77 0,-42 -34,-77 -77,-77z"/>
  <path class="fil3 str6" d="M24982 12156c-42,0 -77,34 -77,77 0,42 34,77 77,77 42,0 77,-34 77,-77 0,-42 -34,-77 -77,-77z"/>
  <path class="fil4 str7" d="M22720 8966c-404,42 -866,2 -1228,-56 102,102 413,640 446,780 28,116 139,-85 192,-148 165,-195 385,-384 573,-557l17 -18z"/>
  <path class="fil5 str8" d="M23850 12037c0,250 -208,452 -465,452 -257,0 -465,-202 -465,-452 0,-16 1,-32 3,-47 -41,-27 -67,-71 -67,-120 0,-5 0,-10 1,-14 -31,83 -48,174 -48,269 0,392 287,709 641,709 354,0 641,-318 641,-709 0,-392 -287,-709 -641,-709 -241,0 -451,147 -560,365 30,-36 78,-59 132,-59 10,0 19,1 29,2 85,-85 203,-138 335,-138 257,0 465,202 465,452z"/>
  <path class="fil2 str5" d="M23380 11586c-131,0 -250,53 -335,138 78,12 137,73 137,147 0,82 -74,149 -166,149 -37,0 -71,-11 -99,-29 -2,16 -3,31 -3,47 0,250 208,452 465,452 257,0 465,-202 465,-452 0,-250 -208,-452 -465,-452z"/>
  <path class="fil0 str9" d="M23396 8758c177,178 336,-119 907,823 189,312 235,697 278,1052 37,301 59,520 20,829 -43,352 -85,703 -222,1034 -42,102 -110,567 -102,556 133,-156 787,-32 835,365 9,71 92,407 31,667 -65,276 -281,482 -539,711 -332,295 -814,468 -1142,560 -133,37 -318,18 -338,55"/>
  <path class="fil6 str10" d="M22059 13110c9,-183 -339,-348 -778,-370 -438,-21 -801,109 -810,292 -9,183 339,348 778,370 438,21 801,-109 810,-292zm-656 -270c8,50 -110,110 -263,136 -153,25 -284,6 -293,-44 -8,-50 110,-110 263,-136 153,-25 284,-6 293,44z"/>
  <path class="fil1 str11" d="M21140 12976c153,-25 271,-86 263,-136 -8,-50 -139,-69 -293,-44 -153,25 -271,86 -263,136 8,50 139,69 293,44z"/>
  <path class="fil4 str3" d="M24380 12496c-42,102 -110,567 -102,556 125,-147 709,-46 820,295 9,-32 -202,-712 -264,-1133 -87,-14 -220,-23 -339,-84 -29,124 -66,246 -115,365z"/>
  <path class="fil4 str3" d="M24496 12131c120,61 253,70 339,84 -11,-72 -17,-137 -17,-190 0,-53 0,-107 1,-162 -76,50 -179,58 -279,50 -13,73 -27,146 -44,218z"/>
  <path class="fil7 str4" d="M21610 15627c-578,41 -1601,-155 -2155,-337 -458,-151 -928,-373 -1357,-573 -399,-186 -1595,-1051 -1621,-1498 -99,340 -146,1112 -72,1457 151,711 49,-301 172,-17 34,78 39,209 116,373 78,165 99,327 245,529 184,254 373,427 630,600 15,-76 -203,-769 157,-221 299,455 1231,993 1772,1076 128,20 232,57 320,72 -512,-596 318,-36 472,112l21 17c6,30 311,338 346,354 102,269 287,555 317,452 141,-475 945,-865 905,-708 -48,188 -411,434 31,121 552,-391 850,-580 991,-1285 16,-81 -13,-474 -12,-479 68,-15 190,168 214,286 109,527 35,-437 24,-545 0,0 -1,1 -1,1l-39 5c-665,150 -839,164 -1477,209z"/>
  <path class="fil5 str8" d="M18758 11173c97,-170 284,-286 498,-286 314,0 569,248 569,554 0,306 -255,554 -569,554 -314,0 -569,-248 -569,-554 0,-17 1,-34 2,-50 -17,-24 -28,-52 -28,-82 0,-60 39,-112 96,-135zm522 -414c-420,0 -760,330 -760,736 0,407 340,736 760,736 420,0 760,-330 760,-736 0,-407 -340,-736 -760,-736z"/>
  <path class="fil0 str12" d="M19781 7903c-12,104 -336,372 -342,557 -9,103 -309,375 -475,800 -181,464 -404,1211 -549,1953 -64,328 -68,409 1,747 17,83 46,74 71,144 -232,0 -347,-63 -612,137 -360,271 -403,808 -231,1205 182,419 95,205 307,543 190,302 634,562 986,686 105,37 614,287 1147,408 716,162 1494,190 1525,204 83,36 861,65 1516,5 485,-44 871,-174 1029,-197"/>
  <path class="fil8 str13" d="M17958 11950c-353,-209 -850,-295 -1190,-96 -6,4 -12,7 -17,10 -138,86 -248,222 -309,418 -69,221 -66,360 -66,466 0,147 13,239 97,488 2,-6 3,-12 5,-17 1,20 5,40 10,62 120,460 1230,1259 1611,1436 429,200 900,423 1357,573 554,182 1577,378 2155,337 637,-45 811,-59 1477,-209l39 -5 1 -1c20,-36 205,-17 338,-55 197,-55 449,-140 690,-262 -158,23 -543,152 -1029,197 -655,60 -1433,31 -1516,-5 -32,-14 -809,-42 -1525,-204 -533,-121 -1042,-371 -1147,-408 -351,-124 -796,-384 -986,-686 -212,-338 -126,-124 -307,-543 -172,-397 -130,-934 231,-1205 265,-199 380,-137 612,-137 -24,-70 -21,-76 -32,-154 -52,-342 -97,-428 -5,-710 33,-102 102,-187 158,-236 -153,-14 -448,-68 -578,-153 -9,15 -23,25 -40,29 -1,31 -1,65 -1,101 0,108 21,999 -30,969z"/>
  <g id="_296422432">
   <path class="fil5" d="M19594 7722c1038,-1384 1299,-1418 2625,-2411 134,-100 258,-207 401,-290 -156,182 -416,386 -604,540 -1202,983 -1345,960 -2278,2264 -28,39 -83,48 -123,20 -39,-28 -48,-83 -20,-123z"/>
  </g>
  <path class="fil0" d="M19665 7773c1198,-1663 1278,-1356 2850,-2666l104 -86"/>
  <path class="fil4 str7" d="M19439 8460c204,-85 406,-141 576,-202 -25,-30 -48,-63 -50,-73 -31,-202 36,5 12,-169 -6,-42 -17,-94 -32,-150 0,0 0,0 0,0 -55,10 -110,23 -163,37 -12,104 -336,372 -342,557z"/>
  <path class="fil0 str12" d="M17379 16023c-147,435 200,2317 555,2620 12,10 403,544 553,686 225,213 -85,615 -85,1007 0,313 393,712 696,736 165,13 460,86 648,-48 143,-102 312,-80 355,-433 66,-533 -204,-976 -616,-1307 -538,-433 -544,-392 -799,-1079 -105,-282 -355,-1390 -234,-1631"/>
  <path class="fil0 str12" d="M18422 16896c-6,-454 -553,-461 -553,-21 0,186 80,637 151,809 135,327 264,678 451,986 129,212 525,858 586,1053 128,410 204,384 184,880 -10,252 755,181 880,-59l-21 49"/>
  <path class="fil0 str1" d="M18606 19978c133,193 233,111 306,472 28,136 -69,243 -61,276"/>
  <path class="fil9 str14" d="M18470 18670c129,212 525,858 586,1053 128,410 204,384 184,880 -10,242 695,186 862,-31 56,-524 -212,-959 -619,-1287 -538,-433 -544,-392 -799,-1079 -78,-211 -238,-884 -263,-1310 -1,-13 -1,-26 -2,-39 -36,-415 -552,-410 -552,18 0,186 80,637 151,809 135,327 264,678 451,986z"/>
  <path class="fil4 str14" d="M19056 19723c-61,-195 -457,-841 -586,-1053 -186,-307 -316,-658 -451,-986 -71,-172 -151,-623 -151,-809 0,-428 516,-433 552,-18 -5,-126 3,-227 31,-282 -310,-194 -586,-423 -725,-635 -360,-549 -142,145 -157,221 -68,-45 -131,-91 -190,-138 -147,435 200,2317 555,2620 12,10 403,544 553,686 225,213 -85,615 -85,1007 0,313 393,712 696,736 165,13 460,86 648,-48 143,-102 312,-80 355,-433 1,-7 2,-14 2,-21 -167,217 -871,273 -862,31 20,-496 -56,-470 -184,-880z"/>
  <path class="fil0 str12" d="M18420 16857c252,149 577,411 903,437 192,15 577,91 788,4 61,-25 188,-2 200,-80"/>
  <path class="fil10 str15" d="M18420 16857c252,149 577,411 903,437 192,15 577,91 788,4 61,-25 188,-2 200,-80l-21 -17c-154,-148 -985,-708 -472,-112 -89,-15 -192,-53 -320,-72 -289,-44 -690,-219 -1046,-441 -28,55 -36,156 -31,282z"/>
  <path class="fil0 str12" d="M21281 17593c-116,872 -99,794 -630,1503 -126,169 -622,272 -693,688 -8,49 -17,-16 6,65"/>
  <path class="fil0 str12" d="M20058 20767c246,376 1466,447 1466,-370 0,-532 -228,-725 -256,-1075 -10,-128 611,-863 707,-1168 96,-309 261,-702 370,-1039"/>
  <path class="fil9 str14" d="M21619 17359c-10,811 -238,1079 -643,1749 -361,596 -444,482 -444,1248 0,359 573,464 873,239 52,-39 89,-75 114,-111 3,-28 5,-57 5,-87 0,-532 -228,-725 -256,-1075 -2,-22 15,-61 43,-112 12,-31 27,-62 47,-96 156,-257 418,-568 581,-875 15,-31 27,-60 35,-86 89,-285 237,-644 345,-962 2,-11 3,-21 4,-30 2,-25 19,-40 21,-46 0,0 0,0 0,-1 -123,101 -268,202 -435,320 -442,313 -79,67 -31,-121 16,-63 -103,-38 -260,44z"/>
  <path class="fil4 str7" d="M20976 19108c405,-670 633,-938 643,-1749 -105,55 -227,136 -338,234 -116,872 -99,794 -630,1503 -126,169 -622,272 -693,688 -8,49 -17,-16 6,65 113,217 167,458 138,722 7,-9 13,-19 18,-28l-21 49c-9,73 -23,130 -42,175 237,362 1377,442 1461,-283 -26,36 -62,72 -114,111 -300,225 -873,120 -873,-239 0,-766 83,-652 444,-1248z"/>
  <path class="fil0 str12" d="M18386 23486c-38,-89 -304,20 -260,235 66,326 -217,281 37,638 41,58 -81,282 -100,335 -117,337 -442,211 -14,781 101,135 442,270 423,-177 -16,-367 30,-189 -92,-543 -30,-87 -31,-83 0,-174 73,-210 -178,-437 -13,-668 85,-119 -276,-38 6,-394 19,-24 14,-29 12,-33z"/>
  <path class="fil0 str12" d="M18150 25119c-37,-201 -350,-15 -80,284 119,132 83,-268 80,-284z"/>
  <path class="fil1 str11" d="M18150 25119c-37,-201 -350,-15 -80,284 119,132 83,-268 80,-284z"/>
  <path class="fil0 str12" d="M18217 23983c-105,108 24,419 10,108 0,-3 29,-219 -10,-108l0 0z"/>
  <path class="fil1 str4" d="M18217 23983c-105,108 24,419 10,108 0,-3 29,-219 -10,-108z"/>
  <path class="fil0 str12" d="M17934 25067c-97,117 13,190 93,304 35,50 107,143 160,46 38,-69 110,-276 36,-339 -86,-74 120,-609 13,-587 -1,0 -6,12 -13,31 -7,19 -17,46 -29,77 -12,31 -26,67 -42,104 -16,37 -34,74 -52,111 -70,144 -163,251 -165,254z"/>
  <path class="fil11 str16" d="M17934 25067c-97,117 13,190 93,304 35,50 107,143 160,46 38,-69 110,-276 36,-339 -86,-74 120,-609 13,-587 -1,0 -6,12 -13,31 -7,19 -17,46 -29,77 -12,31 -26,67 -42,104 -16,37 -34,74 -52,111 -70,144 -163,251 -165,254zm136 336c-270,-300 43,-485 80,-284 3,17 39,416 -80,284z"/>
  <path class="fil12 str17" d="M18236 24491c106,-22 -100,514 -13,587 74,63 2,270 -36,339 -52,97 -125,4 -160,-46 -80,-114 -190,-187 -93,-304 2,-2 95,-110 165,-254 18,-36 36,-74 52,-111 16,-37 30,-73 42,-104 12,-31 22,-58 29,-77 7,-19 12,-30 13,-31zm132 -577c85,-119 -276,-38 6,-394 19,-24 14,-29 12,-33 -38,-89 -304,20 -260,235 66,326 -217,281 37,638 41,58 -81,282 -100,335 -117,337 -442,211 -14,781 101,135 442,270 423,-177 -16,-367 30,-189 -92,-543 -30,-87 -31,-83 0,-174 73,-210 -178,-437 -13,-668zm-141 177c13,311 -115,0 -10,-108 39,-112 10,104 10,108z"/>
  <path class="fil0 str12" d="M18859 25526c-85,-63 -14,242 83,91 2,-4 3,-178 -83,-91z"/>
  <path class="fil7 str4" d="M18859 25526c-85,-63 -14,242 83,91 2,-4 3,-178 -83,-91z"/>
  <path class="fil0 str12" d="M18873 25922c-4,-31 1,-73 -3,-92 -24,-111 -62,-37 -58,22 3,40 34,88 60,70"/>
  <path class="fil7 str4" d="M18873 25922c-4,-31 1,-73 -3,-92 -24,-111 -62,-37 -58,22 3,40 34,88 60,70z"/>
  <path class="fil0 str12" d="M19169 25581c-25,-16 -98,47 -47,142 44,82 102,-3 88,-74 -1,-7 -26,-59 -41,-68z"/>
  <path class="fil7 str4" d="M19169 25581c-25,-16 -98,47 -47,142 44,82 102,-3 88,-74 -1,-7 -26,-59 -41,-68z"/>
  <path class="fil0 str12" d="M19339 25617c-55,-7 46,186 55,73 3,-37 -9,-67 -55,-73z"/>
  <path class="fil7 str4" d="M19339 25617c-55,-7 46,186 55,73 3,-37 -9,-67 -55,-73z"/>
  <path class="fil0 str12" d="M19193 26318c-19,-39 -75,58 -73,95 7,115 -29,142 43,260 40,66 105,-98 93,-185 -8,-55 35,-136 -59,-169 -4,-1 -3,0 -4,-1z"/>
  <path class="fil7 str4" d="M19193 26318c-19,-39 -75,58 -73,95 7,115 -29,142 43,260 40,66 105,-98 93,-185 -8,-55 35,-136 -59,-169 -4,-1 -3,0 -4,-1z"/>
  <path class="fil0 str12" d="M18970 24734c-56,-3 -9,167 52,118 52,-41 -2,-127 -28,-127 -24,0 -10,10 -24,9z"/>
  <path class="fil7 str4" d="M18970 24734c-56,-3 -9,167 52,118 52,-41 -2,-127 -28,-127 -24,0 -10,10 -24,9z"/>
  <path class="fil0 str12" d="M18969 24149c0,-62 26,-320 -116,-250 -91,45 -126,421 -77,541 56,137 -36,632 -27,824 6,139 -133,379 -37,643 7,20 71,387 195,298 82,-59 86,-347 98,-286 26,130 -32,469 14,621 16,51 70,468 233,328 87,-74 121,-620 76,-729 -4,-9 -35,-369 69,-194 35,60 110,126 150,10 32,-92 41,24 20,-143 -18,-146 -229,-498 -285,-699 -22,-79 -93,-169 -134,-330 -60,-232 -237,-366 -194,-578 4,-22 18,-72 20,-87"/>
  <path class="fil11 str16" d="M18984 24708c26,0 80,86 28,127 -61,48 -108,-121 -52,-118 15,1 0,-9 24,-9zm154 59c-60,-232 -237,-366 -194,-578 3,-15 10,-42 15,-63 1,-72 21,-311 -117,-243 -91,45 -126,421 -77,541 56,137 -36,632 -27,824 6,139 -133,379 -37,643 7,20 71,387 195,298 82,-59 86,-347 98,-286 26,130 -32,469 14,621 16,51 70,468 233,328 87,-74 121,-620 76,-729 -4,-9 -35,-369 69,-194 35,60 110,126 150,10 32,-92 41,24 20,-143 -18,-146 -229,-498 -285,-699 -22,-79 -93,-169 -134,-330zm-289 742c87,-87 86,87 83,91 -97,151 -168,-154 -83,-91zm261 888c-2,-37 54,-135 73,-95 0,1 0,0 4,1 94,33 51,114 59,169 12,87 -53,251 -93,185 -72,-118 -36,-145 -43,-260zm-249 -584c4,20 -1,61 3,92 -26,18 -57,-30 -60,-70 -5,-60 34,-134 58,-22zm523 -139c-9,113 -109,-80 -55,-73 46,6 58,36 55,73zm-272 33c-51,-95 22,-158 47,-142 15,9 39,61 41,68 14,71 -44,156 -88,74z"/>
  <path class="fil0 str12" d="M19632 26542c-35,147 -21,277 -63,421 -30,102 -118,451 86,401 96,-24 153,-447 60,-578 -52,-73 -81,-254 -83,-244z"/>
  <path class="fil7 str4" d="M19632 26542c-35,147 -21,277 -63,421 -30,102 -118,451 86,401 96,-24 153,-447 60,-578 -52,-73 -81,-254 -83,-244z"/>
  <path class="fil0 str12" d="M18401 20336c-457,166 -1069,847 -1214,1310 -185,593 -134,493 -183,1105 -37,458 183,240 203,142 25,-125 -95,-169 -60,-460 84,-681 501,-1170 1020,-1560 324,-244 453,-78 261,-347 -6,-8 -26,-167 -21,-180 26,-5 24,-21 -6,-10z"/>
  <path class="fil13 str18" d="M18425 20334c-457,166 -1093,849 -1238,1312 -185,593 -134,493 -183,1105 -37,458 183,240 203,142 25,-125 -95,-169 -60,-460 84,-681 501,-1170 1020,-1560 241,-181 516,-195 491,-270 -17,-26 9,-120 -5,-147 -11,-17 16,22 0,0 -3,-4 -57,-42 -62,-83 -9,-36 -166,-6 -166,-40z"/>
  <path class="fil0 str12" d="M21261 20905c54,113 612,625 698,873 79,228 194,445 184,696 -7,172 89,138 -69,361 -144,202 438,373 212,-135 -102,-230 -35,-667 -120,-963 -85,-295 -339,-846 -719,-1034 -1,-5 -190,193 -186,202z"/>
  <path class="fil14 str19" d="M21261 20905c115,238 589,557 698,873 79,228 194,445 184,696 -7,172 89,138 -69,361 -144,202 378,395 212,-135 -74,-236 -48,-668 -120,-963 -73,-297 -338,-843 -716,-1032 -46,83 -112,149 -190,200z"/>
  <path class="fil0 str20" d="M17141 22557c-243,136 -226,166 -178,449 67,397 461,30 288,-388 -33,-80 -90,-72 -110,-61z"/>
  <path class="fil15 str21" d="M17207 22893c-20,97 -240,315 -203,-142 3,-41 6,-78 9,-113 -105,82 -86,150 -50,368 67,397 461,30 288,-388 -33,-80 -90,-72 -110,-61 6,184 87,232 66,336z"/>
  <path class="fil0 str22" d="M22270 22631c-125,2 -239,-88 -280,213 -64,472 546,421 347,-154 -10,-29 -41,-59 -68,-59z"/>
  <path class="fil15 str23" d="M22287 22701c166,530 -356,337 -212,135 89,-125 98,-169 89,-214 -79,-7 -144,11 -173,223 -64,472 546,421 347,-154 -10,-29 -41,-59 -68,-59 4,25 10,48 16,70z"/>
  <path class="fil0 str12" d="M17272 22677c478,-144 803,-248 1297,-334 799,-139 2853,-136 3476,323"/>
  <path class="fil0 str12" d="M17285 22930c209,-61 505,-166 758,-232 267,-70 498,-104 780,-146 260,-38 616,-41 873,-46 715,-15 1169,54 1627,149 153,32 275,87 438,143 65,22 153,66 227,76"/>
  <path class="fil16 str24" d="M18043 22698c267,-70 498,-104 780,-146 260,-38 616,-41 873,-46 715,-15 1169,54 1627,149 153,32 275,87 438,143 65,22 153,66 227,76 1,-10 2,-20 3,-30 12,-90 31,-145 55,-178 -623,-459 -2677,-462 -3476,-323 -495,86 -819,190 -1297,334 27,91 28,178 13,253 209,-61 505,-166 758,-232z"/>
  <path class="fil0 str12" d="M17467 23133c466,-366 2225,-387 2896,-337 233,17 1446,160 1591,337"/>
  <path class="fil11 str16" d="M20309 23325c-349,0 57,-115 49,-74 1,-6 45,7 47,9 94,57 -65,65 -96,65zm1653 -103c-145,-177 -1359,-320 -1591,-337 -671,-49 -2430,-29 -2896,337 173,92 390,176 505,200 91,19 186,35 285,50 63,-36 132,-38 149,3 1,3 5,7 -1,17 747,96 1641,95 2316,42 264,-21 925,-167 1233,-313zm-2800 21c-15,86 -319,59 -327,55 -213,-88 140,-109 149,-132 -53,-92 225,-52 237,-46 114,56 -50,69 -59,122zm1418 -6c-165,57 -229,-82 -30,-48 44,7 32,38 30,48zm-1164 131c137,-36 -9,119 -73,73 -98,-70 73,-73 73,-73zm376 -182c6,5 47,25 32,32 -142,70 -76,-68 -32,-32zm-1608 23c65,6 62,59 31,64 -207,35 -160,-76 -31,-64z"/>
  <path class="fil0 str12" d="M17033 23157c-52,120 241,389 370,452 151,73 310,151 476,172 11,1 282,37 255,6"/>
  <path class="fil15 str21" d="M17033 23157c-52,120 241,389 370,452 151,73 310,151 476,172 10,1 236,66 256,48 0,-2 -1,-40 -1,-42 -1,-20 -4,-42 -9,-66 -23,-113 40,-197 111,-238 -98,-15 -193,-31 -285,-50 -115,-23 -332,-107 -505,-200 -96,-51 -178,-105 -221,-152 -56,85 -134,121 -192,76z"/>
  <path class="fil0 str12" d="M18379 23870c143,12 270,36 427,29 192,-8 413,12 630,22 59,2 117,4 174,4 315,0 527,10 849,-16 398,-32 1734,-182 1798,-706 5,-40 39,-52 0,-58"/>
  <path class="fil17 str12" d="M20974 23847c-94,-117 -274,20 -400,2 -16,18 -156,-15 -41,137 45,60 -53,334 -17,334 120,0 673,9 746,-57 55,-49 64,-24 29,-196 -103,-498 53,-292 -244,-250 -49,7 -59,48 -73,31z"/>
  <path class="fil18 str25" d="M18379 23870c143,12 270,36 427,29 16,-1 33,-1 49,-1 32,-15 55,-13 72,0 161,2 336,16 509,23 59,2 117,4 174,4 315,0 527,10 849,-16 398,-32 1734,-182 1798,-706 5,-40 39,-52 0,-58 -55,28 -119,25 -171,-10 -4,18 -13,10 -24,20 -28,25 -72,52 -127,78 -308,146 -969,292 -1233,313 -675,53 -1570,54 -2316,-42 -2,4 -6,9 -11,16 -239,301 -18,290 5,351z"/>
  <path class="fil0 str12" d="M17124 23375c26,178 120,316 110,555 -3,83 713,297 838,270"/>
  <path class="fil15 str21" d="M17124 23375c26,178 120,316 110,555 -3,83 713,297 838,270 -61,-164 58,-203 63,-371 -20,18 -246,-46 -256,-48 -166,-20 -325,-98 -476,-172 -72,-35 -194,-133 -279,-234z"/>
  <path class="fil0 str12" d="M18336 24245c82,16 127,13 148,18 9,2 -6,-19 -6,-31 0,-63 -21,-196 -9,-359"/>
  <path class="fil15 str21" d="M18336 24245c82,16 127,13 148,18 9,2 -6,-19 -6,-31 0,-62 -20,-192 -10,-352 -30,-3 -60,-6 -91,-9 4,11 2,25 -11,44 -80,112 -62,223 -31,331z"/>
  <path class="fil0 str12" d="M18485 24263c71,15 194,35 269,34 -2,-25 11,-113 11,-156 0,-59 25,-143 53,-195 5,-9 28,-52 27,-53"/>
  <path class="fil16 str24" d="M18485 24263c71,15 193,35 268,34 0,-2 0,-5 0,-8 -2,-143 28,-324 84,-378 2,-5 5,-9 6,-13l-37 1c-123,5 -228,-8 -337,-20 -10,160 10,290 10,352 0,13 14,33 6,32z"/>
  <path class="fil0 str12" d="M17249 23954c0,276 347,2306 564,3145 56,218 28,361 72,365 124,12 607,174 753,169 0,0 288,60 252,10 -3,-4 -270,-1951 -277,-2006 -46,-370 -103,-1005 -120,-1372"/>
  <path class="fil15 str21" d="M17249 23954c0,276 347,2306 564,3145 56,218 28,361 72,365 124,12 607,174 753,169 0,0 288,60 252,10 -3,-4 -270,-1951 -277,-2006 -46,-370 -103,-1005 -120,-1372 -3,-1 -6,-1 -8,-2 0,0 0,0 0,0 -21,-5 -66,-2 -148,-18 33,116 82,229 44,337 -31,91 -30,87 0,174 122,354 76,176 92,543 19,447 -322,311 -423,177 -428,-570 -103,-444 14,-781 18,-53 141,-277 100,-335 -46,-65 -75,-116 -91,-159 -114,24 -722,-152 -823,-246z"/>
  <path class="fil0 str12" d="M18949 24300c80,32 1425,51 1580,32 92,-11 62,-387 54,-435"/>
  <path class="fil0 str12" d="M20435 24403c68,8 788,-90 788,-159 0,-196 -39,-203 6,-423 1,-6 5,-24 -3,-20"/>
  <path class="fil18 str25" d="M18949 24300c80,32 1425,51 1580,32 92,-11 62,-387 54,-435 -48,5 -89,9 -124,11 -321,26 -534,16 -849,16 -57,0 -115,-2 -174,-4 -172,-7 -348,-22 -509,-23 54,41 42,191 41,245 -5,21 -12,49 -15,63 -7,33 -8,65 -5,95z"/>
  <path class="fil0 str12" d="M20529 24333c0,0 -1,359 -1,418 0,917 -137,2061 -103,2908 6,143 -1420,55 -1534,-16"/>
  <path class="fil18 str25" d="M20528 24750c0,-59 1,-418 1,-418 -155,19 -1500,0 -1580,-32 15,162 149,288 199,483 41,161 112,251 134,330 56,201 267,553 285,699 21,168 12,51 -20,143 -40,116 -115,50 -150,-10 -103,-174 -73,185 -69,194 45,109 10,655 -76,729 -163,139 -218,-277 -233,-328 -46,-152 13,-492 -14,-621 -12,-61 -16,227 -98,286 -124,90 -188,-278 -195,-298 -96,-264 44,-504 37,-643 -9,-192 83,-688 27,-824 -14,-33 -21,-85 -22,-144 -72,2 -188,-17 -260,-32 17,367 74,1002 120,1372 7,56 275,2003 277,2006 114,71 1539,159 1534,16 -33,-847 103,-1992 103,-2908zm-896 1792c2,-10 34,169 83,244 88,133 26,558 -60,578 -205,47 -116,-299 -86,-401 42,-144 28,-274 63,-421z"/>
  <path class="fil0 str12" d="M21224 24192c31,29 907,-253 896,-384 -5,-56 76,-426 96,-484"/>
  <path class="fil15 str21" d="M21224 24192c31,29 907,-253 896,-384 -5,-56 76,-426 96,-484 -135,244 -571,390 -988,477 5,0 2,13 1,18 -40,194 -6,200 -6,373z"/>
  <path class="fil0 str12" d="M17886 27464c-22,71 -1,196 47,255 60,72 308,98 393,116 258,53 572,92 568,72 -9,-46 -31,-230 -4,-265"/>
  <path class="fil15 str26" d="M17886 27464c-22,71 -1,196 47,255 60,72 308,98 393,116 258,53 572,92 568,72 -8,-41 -26,-190 -11,-248 -48,14 -244,-27 -244,-27 -146,6 -629,-156 -753,-169z"/>
  <path class="fil0 str12" d="M20415 27679c171,30 987,-118 1152,-241 28,-21 10,151 -9,192 -173,365 -2249,345 -2544,307 -3,0 -118,-29 -119,-29 -3,-12 -4,32 0,0"/>
  <path class="fil14 str19" d="M21567 27438c-165,123 -980,271 -1152,241 -124,115 -1416,32 -1524,-36 6,9 3,14 -8,17 -15,57 3,207 11,248 1,0 116,28 119,29 294,39 2371,58 2544,-307 19,-41 38,-213 9,-192z"/>
  <path class="fil0 str12" d="M22120 23808c-24,231 -308,1599 -368,2304 -10,113 -136,1294 -185,1325"/>
  <path class="fil14 str19" d="M21752 26113c59,-694 335,-2029 367,-2292 -39,135 -864,400 -895,372 0,60 -636,147 -696,140 0,0 -1,359 -1,418 0,917 -137,2061 -103,2908 0,7 -3,14 -10,20 171,30 987,-118 1152,-241 0,0 0,0 1,0 50,-39 175,-1212 185,-1325z"/>
  <path class="fil15 str21" d="M20343 22896c233,17 1446,160 1591,337 55,-26 99,-52 127,-78 11,-10 20,-2 24,-20 -63,-42 -109,-129 -98,-261 -73,-10 -162,-54 -227,-76 -164,-56 -285,-111 -438,-143 -458,-94 -912,-164 -1627,-149 -257,5 -613,8 -873,46 -282,42 -512,76 -780,146 -253,66 -549,171 -758,232 -12,59 -33,110 -60,151 43,47 125,101 221,152 466,-366 2225,-387 2896,-337z"/>
  <path class="fil0 str12" d="M13937 16805c-536,-25 -210,798 -683,1201 -113,96 31,605 -348,1026 -309,342 -412,613 -996,906 -215,108 -433,302 -608,450 -534,452 -735,843 -702,1332 61,917 1164,506 1631,13 855,-901 514,-744 1016,-1626 211,-371 303,-1258 754,-1335 240,-41 21,-596 613,-800 412,-143 -34,-954 -123,-696 -244,704 -850,217 -640,-128 72,-118 21,-346 87,-343z"/>
  <path class="fil0 str12" d="M14172 18446c-293,-30 -653,-561 -547,-221 70,225 -49,-93 -112,276 -38,223 -449,984 -646,1138 -86,67 -332,381 -492,471 -83,47 -857,737 -918,848 -1,2 -219,259 -293,378 -301,483 159,916 395,838"/>
  <path class="fil19 str27" d="M14172 18446c-293,-30 -653,-561 -547,-221 70,225 -49,-93 -112,276 -38,223 -449,984 -646,1138 -86,67 -332,381 -492,471 -83,47 -857,737 -918,848 -1,2 -219,259 -293,378 -301,483 159,916 395,838 254,-98 503,-264 671,-441 855,-901 514,-744 1016,-1626 211,-371 303,-1258 754,-1335 117,-20 125,-163 171,-328z"/>
  <path class="fil0 str12" d="M14337 17737c-29,-22 -578,-237 -422,-69 532,574 949,32 745,-38 -11,-32 -201,150 -279,95 -22,-15 -38,17 -43,13z"/>
  <path class="fil19 str27" d="M14337 17737c-29,-22 -578,-237 -422,-69 532,574 949,32 745,-38 -11,-32 -201,150 -279,95 -22,-15 -38,17 -43,13z"/>
  <path class="fil3 str27" d="M14659 17630c204,70 -213,612 -745,38 -155,-168 394,48 422,69 6,4 22,-28 43,-13 78,56 268,-127 279,-95zm-1034 595c-106,-340 254,191 547,221 48,-172 139,-368 441,-473 412,-143 -34,-954 -123,-696 -244,704 -850,217 -640,-128 72,-118 21,-346 87,-343 -536,-25 -210,798 -683,1201 -113,96 31,605 -348,1026 -309,342 -412,613 -996,906 -215,108 -433,302 -608,450 -534,452 -735,843 -702,1332 39,588 507,630 961,454 -236,77 -696,-356 -395,-838 74,-119 292,-376 293,-378 61,-111 835,-801 918,-848 160,-90 405,-404 492,-471 197,-155 608,-915 646,-1138 63,-369 182,-51 112,-276z"/>
  <path class="fil0 str12" d="M11352 15121c4,-28 -707,-183 -707,614 0,282 -472,66 -523,655 -16,184 -341,-16 -449,513 -81,397 -660,519 -1025,829 -381,323 -328,170 -694,635 -206,262 -612,1018 -637,1330 -33,406 -221,1195 327,1421 242,100 826,-113 1031,-329 762,-803 619,-757 1031,-1728 212,-498 255,-1070 714,-1415 287,-216 -12,-107 439,-264 153,-53 235,-333 225,-461 345,0 228,143 448,-166 125,-175 -161,-315 330,-355 218,-18 194,-741 65,-612 -144,144 -365,364 -522,198 -78,-83 -470,-502 -332,-584 60,-36 270,-236 277,-283z"/>
  <path class="fil0 str12" d="M11129 15652c-38,-67 -259,-117 86,342 387,515 1045,290 707,123 -294,-146 107,109 -183,49 -26,-5 -230,-97 -204,-119"/>
  <path class="fil19 str4" d="M11124 15645c-48,-63 -243,-94 91,349 270,359 671,358 775,269 8,-23 14,-48 19,-73 -11,-24 -39,-49 -87,-72 -294,-146 107,109 -183,49 -26,-5 -230,-97 -204,-119 -46,0 -90,-17 -130,-59 -44,-46 -185,-197 -278,-336 -2,-2 -3,-5 -5,-7z"/>
  <path class="fil0 str12" d="M11560 16544c-500,-2 -678,-727 -742,-411 -44,214 318,836 565,780 17,-4 -1,-18 24,13"/>
  <path class="fil19 str27" d="M11560 16544c-500,-2 -678,-727 -742,-411 -44,214 318,836 565,780 17,-4 -1,-18 24,13 27,-28 62,-80 126,-170 57,-80 28,-153 27,-212z"/>
  <path class="fil0 str12" d="M11077 17036c-600,-67 -338,-541 -678,-513 -143,12 14,265 -184,257 -273,-12 -434,431 -489,636 -84,312 -1091,641 -1504,1231 -386,550 -1184,1949 -416,2386 84,48 330,80 385,-7l2 41"/>
  <path class="fil19 str27" d="M11077 17036c-600,-67 -338,-541 -678,-513 -143,12 14,265 -184,257 -273,-12 -434,431 -489,636 -84,312 -1091,641 -1504,1231 -386,550 -1184,1949 -416,2386 84,48 330,80 385,-7l2 41c195,-68 384,-172 483,-276 762,-803 619,-757 1031,-1728 212,-498 255,-1070 714,-1415 287,-216 -12,-107 439,-264 117,-40 192,-212 217,-348z"/>
  <path class="fil3 str28" d="M9726 17416c55,-205 216,-647 489,-636 199,8 41,-245 184,-257 339,-28 78,446 678,513 8,-43 11,-82 8,-113 244,0 257,72 322,3 -25,-31 -7,-17 -24,-13 -247,56 -608,-566 -565,-780 64,-316 242,409 742,411 -1,-70 37,-121 303,-143 59,-5 100,-62 127,-139 -104,90 -506,90 -775,-269 -333,-443 -139,-412 -91,-349 -70,-107 -110,-206 -50,-241 60,-36 270,-236 277,-283 4,-28 -707,-183 -707,614 0,282 -472,66 -523,655 -16,184 -341,-16 -449,513 -81,397 -660,519 -1025,829 -381,323 -328,170 -694,635 -206,262 -612,1018 -637,1330 -33,406 -221,1195 327,1421 125,52 341,20 548,-52l-2 -41c-55,86 -301,54 -385,7 -768,-437 30,-1836 416,-2386 413,-590 1421,-918 1504,-1231z"/>
  <path class="fil3 str27" d="M11536 16047c-26,22 178,114 204,119 290,59 -112,-195 183,-49 48,24 76,49 87,72 42,-208 3,-483 -81,-399 -108,108 -258,257 -393,257z"/>
  <path class="fil0 str12" d="M13937 16805c153,-308 -22,-255 344,-180 87,18 536,164 534,167 -42,69 -244,361 -250,438"/>
  <path class="fil9 str29" d="M14281 16625c-365,-74 -191,-128 -344,180 -66,-3 -16,225 -87,343 -209,345 396,832 640,128 16,-46 43,-58 75,-46 7,-77 209,-370 250,-438 2,-3 -447,-150 -534,-167z"/>
  <path class="fil0 str12" d="M11352 15121c49,-71 1174,-1211 1249,-1208 499,20 572,232 666,695 16,79 39,299 -32,329 -104,43 -1173,756 -1307,853"/>
  <path class="fil9 str14" d="M12601 13913c-75,-3 -1200,1137 -1249,1208 -7,47 -217,248 -277,283 -60,35 -20,134 50,241 2,2 3,5 5,7 92,139 234,290 278,336 40,42 84,59 130,59 135,0 285,-149 393,-257 6,-6 13,-11 19,-13 193,-136 1189,-799 1289,-840 70,-29 48,-250 32,-329 -94,-463 -167,-676 -666,-695z"/>
  <path class="fil0 str12" d="M11748 14708c-115,-293 -219,-413 -262,-764 -41,-331 -99,-423 -51,-809 24,-192 16,-397 89,-573 193,-467 276,-735 566,-1177 131,-200 443,-619 635,-728 -201,-50 2226,1105 4328,792"/>
  <path class="fil0 str12" d="M11642 12266c-74,-603 84,-943 539,-1346 177,-156 443,-178 427,-175"/>
  <path class="fil10 str15" d="M12181 10920c-455,402 -613,743 -539,1346 122,-304 223,-541 446,-881 107,-163 334,-472 519,-640 0,0 0,0 0,0 -13,0 -260,28 -427,176z"/>
  <path class="fil0 str12" d="M11633 11847c-120,-183 -271,-565 -488,-735 -4,-3 -1001,-1123 -376,-789 280,150 1325,549 1614,479"/>
  <path class="fil10 str4" d="M11144 11111c218,170 368,552 488,735 37,-363 211,-628 549,-927 61,-54 134,-92 201,-119 -289,70 -1334,-329 -1614,-479 -625,-334 372,786 376,789z"/>
  <path class="fil0 str30" d="M12724 10656c-6931,-4024 -4957,-9724 -1631,-9837 1070,-36 2374,483 3414,1333 1317,1075 3049,2117 3414,7244l73 -47"/>
  <path class="fil0 str30" d="M18594 3158c13,-7 867,-1280 1998,-1949 1828,-1082 2876,710 3188,2242 96,470 180,1120 26,1612"/>
  <path class="fil0 str30" d="M17410 5952c216,-868 32,-127 0,0z"/>
  <path class="fil0 str12" d="M16388 12512c-879,1067 -938,3351 -11,4428l-41 18"/>
  <path class="fil20 str31" d="M16610 16965c-24,-148 -2334,80 -2212,-490 -245,-184 -471,-2048 -269,-2199 -134,-628 1056,-121 1181,-162 575,493 763,-479 763,1569 0,93 137,281 131,325 3,3 628,938 405,957z"/>
  <path class="fil21 str32" d="M16388 12512c-879,1067 -938,3351 -11,4428l-41 18c441,19 877,9 1047,-78 -48,-376 -57,-704 -6,-856 -166,-131 -304,-275 -440,-462 -146,-202 -167,-364 -245,-529 -77,-164 -82,-295 -116,-373 -124,-284 -22,728 -172,17 -72,-340 -29,-1092 67,-1440 -84,-249 -97,-341 -97,-488 0,-64 -1,-139 13,-236z"/>
  <path class="fil0 str12" d="M16649 11942c-160,-78 -571,-447 -577,-443"/>
  <path class="fil22 str33" d="M16768 11854c0,0 0,0 0,0l0 0zm-695 -356c14,4 418,367 577,443 32,-29 66,-55 101,-77l1 0c5,-3 11,-7 16,-10 0,0 0,0 0,0 87,-60 193,-227 283,-405 -322,48 -652,61 -979,50z"/>
  <path class="fil0 str12" d="M16378 12619c-345,64 -2772,-1206 -2871,-1632"/>
  <path class="fil0 str12" d="M15329 12235c95,-312 777,-675 778,-679l-10 -57"/>
  <path class="fil23 str34" d="M16107 11556c-1,4 -683,367 -778,679 421,207 798,360 978,383 26,-36 54,-72 82,-106 9,-66 25,-141 53,-230 45,-145 117,-257 208,-340 -136,-66 -454,-343 -549,-422l7 36z"/>
  <path class="fil0 str12" d="M14157 11574c29,-41 224,-320 262,-317"/>
  <path class="fil24 str35" d="M14419 11256c-38,-3 -233,276 -262,317 345,227 777,468 1172,662 95,-312 777,-675 778,-679l-7 -36c-16,-13 -25,-21 -27,-21 0,0 0,0 0,0 -580,-20 -1151,-119 -1653,-242z"/>
  <path class="fil23 str34" d="M14157 11574c29,-41 224,-320 262,-317 -342,-84 -653,-179 -912,-269 31,134 294,352 650,586z"/>
  <path class="fil0 str12" d="M13213 16196c-2,-26 -231,-1308 -95,-1192"/>
  <path class="fil0 str12" d="M13091 14100c73,-617 592,-2101 1066,-2526"/>
  <path class="fil4 str36" d="M13118 15004c-12,7 -24,15 -37,23 13,-8 25,-16 37,-23zm-37 23c-42,184 129,1146 132,1169 316,190 736,296 798,340 17,12 35,23 55,35 35,8 96,30 215,54 87,18 536,164 534,167 -1,1 -1,2 -2,4 38,7 76,14 113,21 -441,-411 -1324,-2583 402,-4582 -394,-194 -827,-435 -1172,-662 -474,425 -993,1910 -1066,2526 89,113 130,281 177,508 16,79 39,299 -32,329 -17,7 -59,31 -118,68 -12,7 -24,15 -37,23z"/>
  <path class="fil20 str37" d="M13213 16196c-2,-23 -173,-985 -132,-1169 -182,114 -486,314 -738,482 22,111 690,560 726,588 44,35 92,68 144,99z"/>
  <path class="fil0 str12" d="M11958 14497c-179,-1221 215,-2626 1233,-3598 27,-26 18,-13 -39,-42"/>
  <path class="fil7 str4" d="M11958 14497c-179,-1221 215,-2626 1233,-3598 27,-26 18,-13 -39,-42 -251,-99 -409,-175 -436,-196 -33,20 -70,49 -109,84 1,0 1,0 0,0 -75,68 -157,159 -235,255 0,0 -1,1 -1,1 -112,138 -219,287 -278,376 -2,3 -4,6 -5,8 0,0 0,0 0,0 -223,340 -324,577 -446,881 -37,91 -75,188 -119,295 -73,176 -65,381 -89,573 -47,386 11,478 51,809 43,351 147,472 262,764 67,-68 139,-140 211,-211z"/>
  <path class="fil0 str12" d="M13206 10882c32,3 316,87 301,105"/>
  <path class="fil20 str38" d="M13508 10987c-99,-34 -191,-68 -274,-99 -13,-3 -23,-5 -28,-6 0,3 -5,7 -15,17 -1018,973 -1412,2377 -1233,3598 299,-296 605,-586 642,-584 254,10 398,70 490,187 73,-617 592,-2101 1066,-2526 -356,-234 -619,-452 -650,-586z"/>
  <path class="fil0 str12" d="M17996 10757c134,-711 179,-1682 1476,-2310"/>
  <path class="fil8 str13" d="M18268 10559c-14,16 -34,26 -58,26 -41,0 -74,-32 -74,-72 0,-40 33,-72 74,-72 41,0 74,32 74,72 0,17 -6,33 -17,45zm1170 -2096c-411,204 -693,443 -892,698 -23,30 -45,60 -66,90 -351,504 -400,1057 -485,1506 25,8 43,32 43,61 0,12 -3,24 -9,34 96,62 281,108 433,134 12,-57 25,-115 38,-172 25,-109 52,-218 79,-324 -4,-68 7,-126 40,-152 0,-2 1,-3 1,-5 -39,-3 -69,-32 -69,-69 0,-38 33,-69 74,-69 11,0 22,2 31,6 102,-365 211,-694 308,-941 164,-421 461,-692 475,-797z"/>
  <g id="_461016968">
   <path class="fil5" d="M18884 8253c-412,-616 -657,-900 -1367,-1084 727,-10 1109,446 1520,997 24,42 10,96 -33,120 -42,24 -96,10 -120,-33z"/>
  </g>
  <path class="fil0" d="M18960 8209c-248,-433 -834,-1041 -1443,-1041"/>
  <path class="fil4 str7" d="M18547 9161c198,-254 480,-494 892,-698 0,-1 0,-2 0,-3 7,-185 330,-453 342,-557 -90,24 -179,54 -265,90 -226,93 -440,222 -640,379 -337,264 -633,604 -883,977 -347,519 -602,1101 -742,1621 -26,96 -105,293 -199,478 -91,178 -196,346 -283,405 340,-199 837,-113 1190,96 51,30 30,-861 30,-969 0,-36 0,-69 1,-101 -4,1 -8,1 -12,1 -34,0 -61,-29 -61,-64 0,-35 28,-64 61,-64 6,0 13,1 19,3 85,-449 134,-1001 485,-1506 0,0 0,0 0,0 0,0 0,0 0,0 21,-30 43,-60 66,-89 0,0 0,0 0,0z"/>
  <path class="fil8 str39" d="M18601 11004c4,-1 207,-196 177,-194 -20,1 -132,-121 -145,-163 -4,-13 -75,-137 -79,-104 0,1 -34,91 -40,131 -6,43 -93,330 -74,343 7,5 140,7 151,-1 1,0 6,-7 9,-9 0,-1 34,-12 1,-3z"/>
  <path class="fil10 str40" d="M19876 9549c-393,-85 -509,107 -808,343 -24,19 -55,26 -36,-8 120,-222 513,-681 804,-571 194,73 203,178 307,355 107,184 -141,-93 -266,-120zm-408 -1099c-14,105 -310,376 -475,797 -97,247 -205,576 -308,941 26,11 43,35 43,63 0,38 -33,69 -74,69 -2,1 -4,3 -6,4 -13,50 -27,101 -40,152 9,142 89,325 197,341 172,-148 391,-246 622,-246 542,0 970,494 960,986 -9,437 -521,1061 -848,1030 -41,-4 -78,-18 -112,-44 -121,-93 -261,-220 -426,-276 -141,-47 -298,-45 -402,-137 -21,-18 -39,-40 -55,-67 -46,-77 -91,-420 -97,-507 -14,-189 63,-395 196,-569l-7 4c-56,49 -125,133 -158,236 -91,282 -47,367 5,710 12,78 8,84 32,154 -232,0 -347,-63 -612,137 -360,271 -403,808 -231,1205 182,419 95,205 307,543 190,302 634,562 986,686 105,37 614,287 1147,408 716,162 1494,190 1525,204 83,36 861,65 1516,5 485,-44 871,-174 1029,-197 161,-82 318,-180 451,-298 258,-229 475,-435 539,-711 61,-260 -23,-596 -31,-667 -3,-24 -8,-47 -15,-70 -111,-341 -695,-442 -820,-295 -9,10 60,-455 102,-556 49,-120 50,-261 79,-385 -35,-18 -34,-21 -65,-49l-61 -38c5,46 5,94 0,143 -73,730 -304,879 -822,806 -115,-16 -239,37 -342,19 -1,0 -1,0 -2,0 -21,-4 -41,-10 -59,-21 -254,-141 -404,-513 -402,-821 2,-445 373,-810 822,-806 293,3 566,159 707,392 2,-1 196,-25 229,-31 49,-10 84,-27 113,-49 8,-65 16,-129 24,-194 38,-310 17,-529 -20,-829 -44,-355 -89,-740 -278,-1052 -571,-941 -731,-645 -907,-823 -171,117 -411,180 -677,208l-17 18c-188,173 -408,363 -573,557 -54,63 -164,265 -192,148 -34,-139 -345,-678 -446,-780 -109,-17 -209,-36 -295,-55 -569,-123 -1085,-346 -1120,-533 -8,-2 -36,-32 -62,-63 -161,57 -350,111 -543,188 -11,5 -22,11 -34,16zm4072 1766c-112,-53 179,-276 236,-315 259,-181 471,188 551,436 101,309 76,343 -127,6 -267,-444 -587,-92 -661,-127zm-2230 2511c438,21 787,187 778,370 -9,183 -372,313 -810,292 -438,-21 -787,-187 -778,-370 9,-183 372,-313 810,-292zm-1578 937c38,-34 712,272 1531,377 508,65 1061,-34 1397,-103 -169,169 -323,337 -618,410 -387,95 -1164,-16 -1595,-182 -301,-116 -538,-314 -715,-502z"/>
  <path class="fil4 str3" d="M24704 11521c-29,-11 -50,-40 -50,-74 0,-44 34,-79 77,-79 42,0 77,36 77,79 0,44 -34,79 -77,79 -9,0 -18,-2 -27,-5zm-964 -2980c-97,81 -240,146 -344,217 177,178 336,-119 907,823 189,312 235,697 278,1052 37,301 59,520 20,829 -8,65 -16,130 -24,194 -11,86 -24,172 -38,257 101,8 204,0 279,-50 7,-601 42,-1288 -93,-1814 -73,-283 -548,-1275 -799,-1362 -2,-1 -151,-119 -183,-143l-4 -3z"/>
  <path class="fil3 str41" d="M24704 11521c8,3 17,5 27,5 42,0 77,-36 77,-79 0,-44 -34,-79 -77,-79 -42,0 -77,36 -77,79 0,34 21,63 50,74z"/>
  <path class="fil7 str4" d="M21610 15627c-578,41 -1601,-155 -2155,-337 -458,-151 -928,-373 -1357,-573 -381,-178 -1490,-976 -1611,-1436 -6,-21 -9,-42 -10,-62l-5 17c-96,348 -140,1100 -67,1440 151,711 49,-301 172,-17 34,78 39,209 116,373 78,165 99,327 245,529 136,187 274,331 440,462 59,47 122,93 190,138 15,-76 -203,-769 157,-221 139,212 415,442 725,635 356,222 757,397 1046,441 128,20 232,57 320,72 -512,-596 318,-36 472,112l21 17c6,30 311,338 346,354 102,269 287,555 317,452 47,-158 168,-307 307,-430 111,-98 233,-179 338,-234 157,-82 276,-107 260,-44 -48,188 -411,434 31,121 168,-119 312,-219 435,-320 283,-233 458,-474 556,-965 16,-81 -13,-474 -12,-479 68,-15 190,168 214,286 109,527 35,-437 24,-545l-1 1 -39 5c-665,150 -839,164 -1477,209z"/>
  <path class="fil0 str4" d="M21610 15627c-578,41 -1601,-155 -2155,-337 -458,-151 -928,-373 -1357,-573 -381,-178 -1490,-976 -1611,-1436 -6,-21 -9,-42 -10,-62l-5 17c-96,348 -140,1100 -67,1440 151,711 49,-301 172,-17 34,78 39,209 116,373 78,165 99,327 245,529 136,187 274,331 440,462 59,47 122,93 190,138 15,-76 -203,-769 157,-221 139,212 415,442 725,635 356,222 757,397 1046,441 128,20 232,57 320,72 -512,-596 318,-36 472,112l21 17c6,30 311,338 346,354 102,269 287,555 317,452 47,-158 168,-307 307,-430 111,-98 233,-179 338,-234 157,-82 276,-107 260,-44 -48,188 -411,434 31,121 168,-119 312,-219 435,-320 283,-233 458,-474 556,-965 16,-81 -13,-474 -12,-479 68,-15 190,168 214,286 109,527 35,-437 24,-545l-1 1 -39 5c-665,150 -839,164 -1477,209z"/>
  <path class="fil0 str4" d="M21610 15627c-578,41 -1601,-155 -2155,-337 -458,-151 -928,-373 -1357,-573 -381,-178 -1490,-976 -1611,-1436 -6,-21 -9,-42 -10,-62l-5 17c-96,348 -140,1100 -67,1440 151,711 49,-301 172,-17 34,78 39,209 116,373 78,165 99,327 245,529 136,187 274,331 440,462 59,47 122,93 190,138 15,-76 -203,-769 157,-221 139,212 415,442 725,635 356,222 757,397 1046,441 128,20 232,57 320,72 -512,-596 318,-36 472,112l21 17c6,30 311,338 346,354 102,269 287,555 317,452 47,-158 168,-307 307,-430 111,-98 233,-179 338,-234 157,-82 276,-107 260,-44 -48,188 -411,434 31,121 168,-119 312,-219 435,-320 283,-233 458,-474 556,-965 16,-81 -13,-474 -12,-479 68,-15 190,168 214,286 109,527 35,-437 24,-545l-1 1 -39 5c-665,150 -839,164 -1477,209z"/>
  <path class="fil0 str4" d="M21610 15627c-578,41 -1601,-155 -2155,-337 -458,-151 -928,-373 -1357,-573 -381,-178 -1490,-976 -1611,-1436 -6,-21 -9,-42 -10,-62l-5 17c-96,348 -140,1100 -67,1440 151,711 49,-301 172,-17 34,78 39,209 116,373 78,165 99,327 245,529 136,187 274,331 440,462 59,47 122,93 190,138 15,-76 -203,-769 157,-221 139,212 415,442 725,635 356,222 757,397 1046,441 128,20 232,57 320,72 -512,-596 318,-36 472,112l21 17c6,30 311,338 346,354 102,269 287,555 317,452 47,-158 168,-307 307,-430 111,-98 233,-179 338,-234 157,-82 276,-107 260,-44 -48,188 -411,434 31,121 168,-119 312,-219 435,-320 283,-233 458,-474 556,-965 16,-81 -13,-474 -12,-479 68,-15 190,168 214,286 109,527 35,-437 24,-545l-1 1 -39 5c-665,150 -839,164 -1477,209z"/>
  <path class="fil25 str42" d="M21610 15627c-578,41 -1601,-155 -2155,-337 -458,-151 -928,-373 -1357,-573 -381,-178 -1490,-976 -1611,-1436 -6,-21 -9,-42 -10,-62l-5 17c-96,348 -140,1100 -67,1440 151,711 49,-301 172,-17 34,78 39,209 116,373 78,165 99,327 245,529 136,187 274,331 440,462 59,47 122,93 190,138 15,-76 -203,-769 157,-221 139,212 415,442 725,635 356,222 757,397 1046,441 128,20 232,57 320,72 -512,-596 318,-36 472,112l21 17c6,30 311,338 346,354 102,269 287,555 317,452 47,-158 168,-307 307,-430 111,-98 233,-179 338,-234 157,-82 276,-107 260,-44 -48,188 -411,434 31,121 168,-119 312,-219 435,-320 283,-233 458,-474 556,-965 16,-81 -13,-474 -12,-479 68,-15 190,168 214,286 109,527 35,-437 24,-545l-1 1 -39 5c-665,150 -839,164 -1477,209z"/>
  <path class="fil0 str12" d="M16606 13545c-35,26 -176,516 -4,309 41,-50 13,498 85,393 47,-68 195,141 184,276 76,-17 39,-314 194,-276 10,3 210,-106 31,-212 -103,-61 -434,-386 -491,-490z"/>
  <path class="fil1 str11" d="M16606 13545c-35,26 -176,516 -4,309 41,-50 13,498 85,393 47,-68 195,141 184,276 76,-17 39,-314 194,-276 10,3 210,-106 31,-212 -103,-61 -434,-386 -491,-490z"/>
  <path class="fil0 str12" d="M17650 14441c-105,116 3,608 100,760 163,257 224,396 494,581 74,51 390,379 330,294 -1,-2 -92,-657 51,-369 167,336 886,810 1247,934 110,38 416,249 290,20 -5,-9 -256,-258 -107,-170 444,262 353,106 638,608 58,102 182,383 182,371 -8,-215 251,-141 532,-311 187,-113 339,-99 492,-293 379,-483 49,68 126,13 100,-71 212,15 431,-297 304,-434 214,-235 282,-791 23,-185 -410,22 -532,-28 -110,-46 -224,877 -205,386 6,-142 -187,302 -298,376 -75,50 -171,207 -306,207 -1,-13 413,-474 484,-666 159,-429 65,-264 -374,-276 -307,-9 -301,-4 -612,-42 -450,-55 -1114,-246 -1513,-473 -541,-308 -259,-4 -259,177 32,11 151,-351 133,102 -7,166 481,696 -102,171 -237,-213 -375,-675 -402,-691 -46,-27 3,567 -189,100 -196,-475 -471,-323 -799,-618 -2,-2 -115,-78 -115,-78z"/>
  <path class="fil1 str11" d="M19258 15557c-7,166 481,696 -102,171 -237,-213 -375,-675 -402,-691 -46,-27 3,567 -189,100 -196,-475 -471,-323 -799,-618 -2,-2 -115,-78 -115,-78 -105,116 3,608 100,760 163,257 224,396 494,581 74,51 390,379 330,294 -1,-2 -92,-657 51,-369 167,336 886,810 1247,934 110,38 416,249 290,20 -5,-9 -256,-258 -107,-170 444,262 353,106 638,608 58,102 182,383 182,371 -8,-215 251,-141 532,-311 187,-113 339,-99 492,-293 379,-483 49,68 126,13 100,-71 212,15 431,-297 304,-434 214,-235 282,-791 23,-185 -410,22 -532,-28 -110,-46 -224,877 -205,386 6,-142 -187,302 -298,376 -75,50 -171,207 -306,207 -1,-13 413,-474 484,-666 159,-429 65,-264 -374,-276 -307,-9 -301,-4 -612,-42 -450,-55 -1114,-246 -1513,-473 -541,-308 -259,-4 -259,177 32,11 151,-351 133,102z"/>
  <path class="fil0 str12" d="M18469 22943c-31,-102 -14,-243 3,-342l-41 14"/>
  <path class="fil15 str21" d="M18469 22943c-30,-99 -15,-237 2,-336 0,-2 1,-5 1,-7l-41 14c-127,23 -253,49 -388,84 -253,66 -549,171 -758,232 -12,59 -33,110 -60,151 43,47 125,101 221,152 186,-146 576,-237 1022,-290z"/>
  <path class="fil0 str12" d="M20604 22923c32,-295 162,-422 -90,-392"/>
  <path class="fil16 str21" d="M20634 22923c23,-213 96,-340 45,-384 -44,-5 -90,-10 -136,-14 -240,-21 -509,-31 -830,-25 -260,6 -622,8 -885,47 -127,19 -243,36 -357,55 -17,100 -32,239 -2,340 682,-82 1491,-78 1901,-48 50,4 145,13 265,27z"/>
  <path class="fil0 str12" d="M16405 14676c-691,172 -3895,-1138 -4577,-1937 -104,-122 -172,-70 -245,-325"/>
  <path class="fil10 str4" d="M14367 14175c487,193 961,349 1341,438 25,-748 230,-1485 599,-1994 -180,-23 -557,-176 -978,-383 -562,650 -847,1319 -962,1939z"/>
  <path class="fil21 str32" d="M14367 14175c114,-620 400,-1289 962,-1939 -394,-194 -827,-435 -1172,-662 -380,341 -788,1361 -974,2070 374,190 784,372 1184,531z"/>
  <path class="fil10 str15" d="M13184 13644c185,-709 594,-1730 974,-2070 -356,-234 -619,-452 -650,-586 -99,-34 -191,-68 -274,-99 -13,-3 -23,-5 -28,-6 0,3 -5,7 -15,17 -598,571 -981,1292 -1158,2037 270,224 683,472 1150,709z"/>
  <path class="fil4 str36" d="M11958 14497c-74,-504 -50,-1039 75,-1562 -158,-131 -395,-331 -450,-522 -19,47 -39,96 -60,148 -73,176 -65,381 -89,573 -47,386 11,478 51,809 43,351 147,472 262,764 67,-68 139,-140 211,-211z"/>
  <path class="fil0 str12" d="M11583 12413c27,-185 296,-711 563,-1113 266,-400 528,-677 599,-625 47,34 522,193 460,223 -46,23 -347,337 -382,407 -48,96 -286,328 -347,503 -29,84 -161,260 -205,400 -44,141 -123,239 -163,435 -11,53 -33,282 -76,292"/>
  <path class="fil21 str32" d="M11642 12266c-19,47 -39,96 -59,148 21,-51 40,-100 59,-148zm731 -1267c0,0 -1,1 -1,1 0,0 1,-1 1,-1zm-241 322c5,-7 9,-14 14,-21 -22,32 -41,60 -57,84 13,-20 28,-40 43,-62zm1021 -465c-225,-88 -375,-159 -424,-188 -11,-1 -23,2 -38,8 -26,18 -54,41 -83,67 1,0 1,0 0,0 -75,68 -157,159 -235,255 0,0 -1,1 -1,1 -50,62 -100,126 -144,186 -30,41 -58,80 -82,114 1,-2 3,-4 4,-6 -23,33 -44,64 -61,90 0,0 0,0 0,0 -104,159 -182,295 -247,426 -75,150 -134,293 -199,455 -1,-11 -3,-21 -4,-32 -30,75 -49,137 -56,180 23,80 78,162 146,240 30,21 62,42 99,86 53,63 123,129 205,197 21,-87 44,-174 71,-260 2,-13 4,-24 5,-32 40,-196 119,-294 163,-435 25,-79 77,-169 124,-248 25,-47 50,-94 77,-141 2,-4 3,-8 4,-11 31,-90 110,-196 186,-290 54,-78 112,-155 172,-230 25,-37 82,-103 144,-170 68,-75 138,-148 212,-219 10,-9 15,-13 15,-17 0,0 0,-1 0,-1 -1,-1 -1,-1 -2,-2 -6,-4 -22,-8 -51,-22z"/>
  <path class="fil7 str4" d="M15708 14612c-30,875 51,1733 535,2295l0 0c91,66 909,65 1141,-27 -48,-376 -57,-704 -6,-856 -166,-131 -304,-275 -440,-462 -146,-202 -167,-364 -245,-529 -77,-164 -82,-295 -116,-373 -124,-284 -22,728 -172,17 -142,35 -388,8 -697,-64z"/>
  <path class="fil4 str7" d="M15708 14612c-30,875 302,1779 786,2340 -484,-562 -816,-1465 -786,-2340zm1676 2267c-48,-376 -57,-704 -6,-856 -166,-131 -304,-275 -440,-462 -146,-202 -167,-364 -245,-529 -77,-164 -82,-295 -116,-373 -124,-284 -22,728 -172,17 -142,35 -388,8 -697,-64 -30,875 51,1733 535,2295l367 59c441,19 604,2 774,-86z"/>
  <path class="fil0 str12" d="M11777 11388c-495,-360 -768,-671 -1164,-1131 -17,-19 29,-14 -24,4"/>
  <path class="fil4 str36" d="M11777 11388c-494,-359 -767,-670 -1160,-1127 -11,-2 -20,-2 -27,0 -175,32 552,848 555,851 218,170 368,552 488,735 17,-170 64,-318 144,-458z"/>
  <path class="fil0 str12" d="M13968 17610c1,-122 273,-874 355,-974"/>
  <path class="fil26 str43" d="M13970 17589c22,-156 237,-752 332,-920 -91,-30 -172,-63 -235,-98 -72,-17 -26,26 -129,234 -66,-3 -16,225 -87,343 -98,161 -18,354 120,441z"/>
  <path class="fil0 str12" d="M11102 15625c325,-174 1728,-1493 1988,-1525"/>
  <path class="fil7 str4" d="M11109 15621c337,-188 1724,-1490 1982,-1521 -92,-117 -236,-177 -490,-187 -38,-1 -343,288 -642,584 -72,71 -143,143 -211,211 -208,210 -378,387 -396,413 -7,47 -217,248 -277,283 -55,33 -26,119 35,217z"/>
  <path class="fil26 str43" d="M11109 15621c337,-188 1724,-1490 1982,-1521 -92,-117 -236,-177 -490,-187 -38,-1 -343,288 -642,584 -72,71 -143,143 -211,211 -208,210 -378,387 -396,413 -7,47 -217,248 -277,283 -55,33 -26,119 35,217z"/>
  <path class="fil20 str37" d="M10616 10261c394,458 667,769 1160,1127 91,-160 224,-309 404,-468 61,-54 134,-92 201,-119 -289,70 -1334,-329 -1614,-479 -69,-37 -119,-56 -152,-61z"/>
  <path class="fil10 str15" d="M15329 12235c-562,650 -847,1319 -962,1939 487,193 961,349 1341,438 25,-748 230,-1485 599,-1994 -180,-23 -557,-176 -978,-383z"/>
  <path class="fil1 str11" d="M19169 25581c-25,-16 -98,47 -47,142 44,82 102,-3 88,-74 -1,-7 -26,-59 -41,-68z"/>
  <path class="fil1 str11" d="M19193 26318c-19,-39 -75,58 -73,95 7,115 -29,142 43,260 40,66 105,-98 93,-185 -8,-55 35,-136 -59,-169 -4,-1 -3,0 -4,-1z"/>
  <path class="fil1 str11" d="M19339 25617c-55,-7 46,186 55,73 3,-37 -9,-67 -55,-73z"/>
  <path class="fil1 str11" d="M18873 25922c-4,-31 1,-73 -3,-92 -24,-111 -62,-37 -58,22 3,40 34,88 60,70z"/>
  <path class="fil1 str11" d="M18859 25526c-85,-63 -14,242 83,91 2,-4 3,-178 -83,-91z"/>
  <path class="fil1 str11" d="M18970 24734c-56,-3 -9,167 52,118 52,-41 -2,-127 -28,-127 -24,0 -10,10 -24,9z"/>
  <path class="fil11 str16" d="M19632 26542c-35,147 -21,277 -63,421 -19,65 -62,228 -38,327 14,56 49,91 124,74 2,0 4,-1 6,-2 83,-36 140,-446 54,-576 -48,-73 -79,-247 -83,-244 0,0 0,0 0,0z"/>
  <path class="fil2 str5" d="M19824 11440c0,-306 -255,-554 -569,-554 -214,0 -401,115 -498,286 21,-9 45,-14 70,-14 91,0 166,67 166,149 0,82 -74,149 -166,149 -58,0 -108,-26 -138,-67 -2,16 -2,33 -2,50 0,306 255,554 569,554 314,0 569,-248 569,-554z"/>
  <ellipse class="fil27 str44" transform="matrix(0.93995 -0.19413 0.202264 0.979331 18225.3 4937.79)" rx="915" ry="868"/>
  <ellipse class="fil28 str45" transform="matrix(1.00134 -0.20681 0.20681 1.00134 18344.4 4871.13)" rx="675" ry="747"/>
  <ellipse class="fil1 str11" transform="matrix(0.248927 -0.0514116 0.0774309 0.374909 18519.1 4672.36)" rx="864" ry="839"/>
  <ellipse class="fil27 str44" transform="matrix(-0.851393 -0.376011 -0.403997 0.914761 25831.5 5899.7)" rx="915" ry="868"/>
  <ellipse class="fil28 str45" transform="matrix(-0.907001 -0.400569 -0.413076 0.93532 25732.7 5811.04)" rx="675" ry="747"/>
  <ellipse class="fil1 str11" transform="matrix(-0.225475 -0.099579 -0.154659 0.35019 25609.7 5582.54)" rx="864" ry="839"/>
  <g id="_295500800">
   <path class="fil5" d="M19543 7874c116,-1528 1424,-4635 2484,-5743 16,-17 17,-42 21,-64 11,39 11,56 -15,86 -937,1086 -2224,4291 -2314,5721 0,49 -39,88 -88,88 -49,0 -88,-39 -88,-88z"/>
  </g>
  <path class="fil0" d="M19631 7874c0,-1241 1604,-5017 2395,-5728 26,-23 25,-47 22,-79"/>
  <g id="_295500248">
   <path class="fil5" d="M19947 5825c-151,-786 -407,-1826 -804,-2516 503,542 812,1758 977,2485 9,48 -23,94 -71,102 -48,9 -94,-23 -102,-71z"/>
  </g>
  <path class="fil0" d="M20033 5810c-89,-497 -550,-2180 -890,-2501"/>
  <path class="fil29 str46" d="M17967 4377c-39,-147 51,-681 135,-774 -4,-8 42,-76 40,-84 540,-667 1350,-445 1802,209 715,1034 670,2436 654,3642 -3,217 4,436 -43,506 -18,26 -86,29 -111,20 -29,-10 -47,9 -76,-17 -12,5 36,-1768 -11,-2091 -17,-116 -22,-237 -32,-337 -27,-297 -99,-503 -175,-755 -140,-461 -600,-1373 -1185,-1328 -241,18 -398,37 -545,165 -161,141 -298,404 -219,713 8,31 26,111 25,142 0,0 -28,78 -82,86 -26,4 -66,-3 -136,-27 0,0 -42,-66 -43,-70z"/>
  <path class="fil29 str46" d="M22790 7970c85,-138 204,-987 521,-1808 433,-1119 951,-2048 1688,-2186 350,-66 860,-185 1228,374 143,217 75,470 94,601 32,212 -4,382 -61,481 -13,22 20,-23 0,0 -80,91 -103,68 -163,63 -87,-6 -174,-63 -97,-274 9,-23 19,-49 32,-76 47,-101 38,-204 41,-254 5,-64 11,-67 -16,-156 -63,-208 -160,-507 -400,-561 -601,-136 -1172,259 -1497,730 -144,208 -304,634 -426,905 -426,944 -654,2152 -674,2155 -1,3 -36,162 -35,162 -83,94 -180,-11 -239,-50 20,-71 -58,-9 2,-105z"/>
  <path class="fil30 str47" d="M21838 7429c-97,28 -189,81 -253,72 -214,-31 -244,-284 -180,-459 51,-139 188,-167 310,-339 92,-129 256,-470 307,-634 6,3 29,220 95,461 55,200 326,427 338,681 9,181 -108,380 -270,338 -131,-34 -263,-150 -348,-120z"/>
  <ellipse class="fil1 str48" transform="matrix(0.9906 0.136791 -0.136791 0.9906 21918.3 7045.1)" rx="76" ry="252"/>
  <path class="fil31 str49" d="M20182 7678c208,-4 398,14 605,-67 63,-25 312,-176 297,-226 0,0 24,-18 25,-18 1,1 35,-7 48,8 7,9 35,-15 59,27 5,-2 15,24 22,32 4,8 109,139 219,190 56,26 360,133 401,109 120,85 426,102 594,51 117,-35 126,-136 132,-134 -5,-7 40,-35 65,-8 8,-1 40,14 43,12 12,18 84,2 130,98 68,143 309,387 482,339 33,-9 246,-99 252,-83 153,367 -395,408 -685,446 -519,68 -1551,-143 -2051,-309 -337,-112 -531,-61 -722,-368 -64,-102 118,-139 106,-101 0,0 32,4 -21,5z"/>
  <ellipse class="fil1 str50" transform="matrix(0.976861 0.213874 -0.213874 0.976861 21588.1 7158.39)" rx="34" ry="122"/>
  <path class="fil32 str47" d="M21687 7463c-1,-1 -147,516 -330,520 -140,3 -219,-11 -302,-133 -33,-48 -82,-269 -113,-218 -2,0 -259,-6 -246,19 -52,119 -99,240 -260,241 -144,1 -264,-244 -292,-220 -105,28 -174,16 -191,16 -26,-1 22,-13 17,14 -10,47 -2,108 15,215 13,83 4,154 24,183 -30,101 1634,830 1690,571 18,-84 431,-533 377,-602 1,-2 -37,-379 -37,-441 0,-14 1,-100 0,-107 60,-60 -89,-70 -125,-70 -147,0 -172,-23 -261,57 1,3 45,-39 36,-45z"/>
  <path class="fil32 str47" d="M21911 7450c28,13 191,16 176,77 -1,4 22,169 21,201 -1,15 -2,38 3,60 163,772 761,39 690,36 0,-1 213,-81 173,22 -76,195 300,586 498,247 0,0 50,-67 54,-74 0,-1 32,93 155,103 23,2 76,7 75,8 9,11 -54,81 -106,185 -44,88 -78,213 -81,216 -48,48 -214,89 -306,125 -168,66 -442,97 -682,102 -87,2 -189,-22 -252,-23 -282,-3 -638,76 -737,-85 -80,-131 138,-269 252,-619 80,-247 59,-222 74,-467 0,-1 -5,-113 -8,-114z"/>
  <path class="fil30 str51" d="M20158 7848c91,1 313,326 499,103 64,-77 136,-216 115,-324 83,-74 130,-14 153,77 24,95 28,266 191,350 13,6 45,21 59,27 200,83 339,21 403,-91 78,-138 75,-380 126,-513 27,-71 89,-82 145,-89 42,-5 143,-12 169,36 -1,1 -1,280 14,301 1,1 23,392 -9,436 -67,90 -314,535 -454,524 -330,-25 -1067,-258 -1289,-506 0,-1 -64,-157 -67,-159 0,-1 -63,-171 -53,-171z"/>
  <ellipse class="fil33 str47" transform="matrix(0.995599 0.0937156 -0.0937156 0.995599 21828.6 8127.58)" rx="101" ry="252"/>
  <ellipse class="fil1 str50" transform="matrix(1 0.300217 -0 1 20811.9 8332.76)" rx="348" ry="101"/>
  <circle class="fil5 str52" cx="21468" cy="8312" r="84"/>
  <circle class="fil5 str52" cx="22138" cy="8393" r="84"/>
  <ellipse class="fil34 str48" cx="21132" cy="7266" rx="143" ry="141"/>
  <ellipse class="fil27 str48" cx="20854" cy="7439" rx="233" ry="231"/>
  <ellipse class="fil34 str48" cx="22686" cy="7550" rx="143" ry="141"/>
  <ellipse class="fil35 str48" cx="22886" cy="7651" rx="233" ry="231"/>
  <path class="fil30 str47" d="M19968 7701c-5,-4 -109,-277 -108,-278 -51,-102 -94,-193 -150,-299 -35,-66 -393,-527 -391,-530 -1,-1 125,83 171,120 110,88 144,96 244,163 162,108 341,143 521,264 163,109 165,327 59,455 -66,80 -197,107 -286,107 -6,3 -53,6 -59,-2z"/>
  <path class="fil35 str47" d="M24609 7159c-243,113 -374,197 -676,232 -225,27 -603,122 -566,420 18,148 308,374 364,327 37,12 395,-599 533,-692 47,-32 226,-215 307,-240 0,0 71,-62 38,-47z"/>
  <path class="fil30 str53" d="M20032 8168c-209,-68 837,905 2804,745 506,-41 798,-380 792,-376 -214,140 -714,215 -1293,224 -47,1 -95,1 -143,1 -236,-1 -534,-8 -761,-52 -707,-136 -1372,-533 -1400,-542z"/>
  <g id="_295503392">
   <path class="fil36" d="M23593 8547c-8,-640 531,-1016 1027,-1357 -360,374 -889,793 -853,1339 5,46 -30,88 -77,93 -48,5 -91,-29 -96,-75z"/>
  </g>
  <path class="fil0" d="M23680 8538c-60,-536 551,-1028 940,-1348"/>
  <g id="_295503032">
   <path class="fil5" d="M16742 9901c-3389,-1559 -3358,-1780 -5767,-4509 -810,-918 -1151,-1708 -1548,-2855 535,1175 723,1804 1621,2790 2444,2686 2368,2885 5767,4414 44,20 64,72 44,116 -20,44 -72,64 -116,44z"/>
  </g>
  <path class="fil0" d="M16778 9821c-3633,-1644 -3341,-1780 -6008,-4730 -578,-639 -1035,-1780 -1343,-2554"/>
  <g id="_295501784">
   <path class="fil5" d="M14679 8902c-1395,-2002 -1289,-2216 -1664,-4549l-77 -504c700,2658 166,2569 1884,4950 28,39 19,94 -20,123 -39,28 -94,19 -123,-20z"/>
  </g>
  <path class="fil0" d="M14751 8851c-1594,-2213 -1202,-2169 -1813,-5001"/>
  <g id="_295502408">
   <path class="fil5" d="M16590 9828c-601,199 -1944,-301 -3041,309l-194 120c227,-214 291,-266 596,-378 948,-348 2107,-71 2547,-200 41,-26 96,-13 121,28 26,41 13,96 -28,121z"/>
  </g>
  <path class="fil0" d="M16543 9753c-236,147 -2288,-320 -3189,504"/>
  <g id="_461557600">
   <path class="fil5" d="M12759 7508c-511,-220 -1571,-443 -2084,-424l-318 21c816,-215 1637,-21 2434,234 281,90 186,229 41,222 -34,-3 -61,-25 -73,-54z"/>
  </g>
  <path class="fil0" d="M12840 7474c307,31 -1268,-429 -1855,-436 -266,-3 -364,23 -629,67"/>
  <path class="fil10 str54" d="M24339 11708c7,-41 -98,-6 -116,7 -8,-4 118,397 119,398 6,3 140,107 123,37 4,1 15,-26 22,-32 -1,-5 73,-331 63,-410 -7,-53 40,-97 -48,-70 -19,6 -133,71 -172,48l9 21z"/>
  <path class="fil3 str4" d="M17989 10880c1,-46 4,-86 6,-124 -6,-2 -12,-3 -19,-3 -34,0 -61,29 -61,64 0,35 28,64 61,64 4,0 8,0 12,-1z"/>
  <path class="fil3 str4" d="M18285 10514c0,-40 -33,-72 -74,-72 -41,0 -74,32 -74,72 0,40 33,72 74,72 23,0 44,-10 58,-26 10,-12 17,-28 17,-45z"/>
  <path class="fil3 str4" d="M18625 10333c41,0 74,-31 74,-69 0,-38 -33,-69 -74,-69 -41,0 -74,31 -74,69 0,38 33,69 74,69z"/>
  <path class="fil0 str5" d="M18770 11168c-1,12 -48,20 -73,54 -75,104 14,179 4,183"/>
  <g id="_461556640">
   <path class="fil37" d="M18826 10825c-227,-32 -270,-292 -268,-541 39,183 83,444 268,454 19,0 35,19 35,43 0,24 -16,43 -35,43z"/>
  </g>
  <path class="fil0" d="M18826 10781c-188,0 -268,-314 -268,-497"/>
  <g id="_461555152">
   <path class="fil37" d="M18658 11021c-257,-37 -419,-199 -403,-466l0 0c62,228 150,369 403,390 21,0 38,17 38,38 0,21 -17,38 -38,38z"/>
  </g>
  <path class="fil0" d="M18658 10983c-220,0 -403,-207 -403,-428"/>
  <g id="_461555032">
   <path class="fil37" d="M18532 11214c-299,-22 -471,-90 -529,-407 137,274 217,326 529,331 21,0 38,17 38,38 0,21 -17,38 -38,38z"/>
  </g>
  <path class="fil0" d="M18532 11176c-282,0 -459,-97 -529,-369"/>
  <g id="_293717064">
   <path class="fil37" d="M24183 11630c111,54 398,-64 492,-144 -22,118 -381,270 -532,209 -18,-11 -23,-35 -12,-52 11,-18 35,-23 52,-12z"/>
  </g>
  <path class="fil0" d="M24163 11663c100,62 480,-85 512,-176"/>
  <g id="_293717088">
   <path class="fil37" d="M24294 11799c116,130 546,55 574,65 -10,7 -5,4 -16,8l2 0c-174,56 -467,125 -620,-27 -12,-17 -9,-41 8,-53 17,-12 41,-9 53,8z"/>
  </g>
  <path class="fil0" d="M24264 11822c70,96 434,108 587,44l17 -2"/>
  <g id="_293716008">
   <path class="fil37" d="M24360 12016c121,114 356,198 524,208 -132,82 -479,-72 -584,-161 -13,-16 -10,-40 6,-54 16,-13 40,-10 54,6z"/>
  </g>
  <path class="fil0" d="M24331 12040c73,91 450,227 554,185"/>
  <path class="fil0 str0" d="M24193 11674c12,58 69,147 96,201 -6,11 41,175 41,217 0,29 -5,48 3,74"/>
  <g id="_293715408">
   <path class="fil38" d="M18602 20142c182,287 188,306 155,645l0 0c-42,-333 -15,-323 -214,-597 -13,-16 -10,-40 6,-54 16,-13 40,-10 54,6z"/>
  </g>
  <path class="fil0" d="M18572 20165c189,237 185,359 185,621"/>
  <g id="_293718216">
   <path class="fil12" d="M18890 24526c43,255 85,710 -95,935 -76,95 -43,210 -5,311 -76,-96 -101,-230 -27,-334 152,-213 101,-637 62,-871 -11,-18 -6,-41 12,-52 18,-11 41,-6 52,12z"/>
  </g>
  <path class="fil0" d="M18857 24546c58,93 31,806 -42,865 -112,91 -94,259 -25,360"/>
  <g id="_293717496">
   <path class="fil12" d="M18966 25186c-79,146 97,185 26,552l0 0c-24,-285 -161,-437 -92,-590 10,-18 34,-25 52,-14 18,10 25,34 14,52z"/>
  </g>
  <path class="fil0" d="M18933 25167c-96,168 106,189 59,571"/>
  <g id="_293717136">
   <path class="fil12" d="M18969 24943c-32,142 132,306 87,713 -2,20 3,92 2,124 -11,-37 -31,-87 -31,-125 -2,-384 -160,-568 -131,-734 6,-20 28,-31 48,-25 20,6 31,28 25,48z"/>
  </g>
  <path class="fil0" d="M18933 24932c-45,143 169,414 118,664 -22,107 0,82 8,184"/>
  <g id="_294068472">
   <path class="fil12" d="M19290 25431c39,783 -286,677 -183,1149 15,70 9,70 2,147l0 0c-8,-58 -10,-87 -26,-140 -144,-459 191,-393 131,-1148 -2,-21 13,-40 34,-42 21,-2 40,13 42,34z"/>
  </g>
  <path class="fil0" d="M19252 25435c36,337 7,467 -137,772 -145,307 7,270 -6,520"/>
  <g id="_294067416">
   <path class="fil12" d="M19315 25649c-24,181 -55,439 -121,607 -122,310 -81,12 -68,354 -75,-279 -61,-109 23,-369 54,-168 73,-421 90,-600 2,-21 21,-36 42,-34 21,2 36,21 34,42z"/>
  </g>
  <path class="fil0" d="M19277 25645c-23,211 -60,594 -182,766 -5,7 33,152 31,199"/>
  <g id="_294067776">
   <path class="fil12" d="M19088 25725c38,272 137,227 4,558 39,-415 -14,-239 -80,-550 -2,-21 13,-40 34,-42 21,-2 40,13 42,34z"/>
  </g>
  <path class="fil0" d="M19050 25729c18,185 144,205 42,554"/>
  <g id="_294066648">
   <path class="fil12" d="M19072 24957c9,204 219,190 188,579 -78,-382 -242,-368 -265,-579 0,-21 17,-38 38,-38 21,0 38,17 38,38z"/>
  </g>
  <path class="fil0" d="M19033 24957c0,184 237,238 227,579"/>
  <g id="_294065712">
   <path class="fil12" d="M18907 23995c-109,206 -68,347 -58,576 -74,-251 -115,-377 -8,-615 11,-18 34,-24 52,-13 18,11 24,34 13,52z"/>
  </g>
  <path class="fil0" d="M18874 23975c-114,192 -58,384 -25,596"/>
  <g id="_294065160">
   <path class="fil12" d="M18909 23928c-135,40 -116,430 -127,551 -24,-156 -103,-546 108,-624 20,-6 41,6 47,27 6,20 -6,41 -27,47z"/>
  </g>
  <path class="fil0" d="M18899 23891c-175,47 -112,450 -117,587"/>
  <g id="_294065016">
   <path class="fil12" d="M18810 24341c25,409 32,207 -20,607 -20,-395 -2,-200 -53,-584 -6,-20 5,-41 25,-48 20,-6 41,5 48,25z"/>
  </g>
  <path class="fil0" d="M18773 24353c46,147 24,447 17,596"/>
  <g id="_460922240">
   <path class="fil12" d="M18845 24697c-11,440 13,222 -72,655 13,-436 15,-217 -5,-655 0,-21 17,-38 38,-38 21,0 38,17 38,38z"/>
  </g>
  <path class="fil0" d="M18807 24697c0,197 20,462 -34,655"/>
  <g id="_460925384">
   <path class="fil12" d="M18826 24096c-75,519 41,672 -40,1164 -9,57 2,48 -21,109l0 0c1,-43 -3,-74 0,-115 39,-507 -72,-643 -11,-1180 6,-20 28,-31 48,-25 20,6 31,28 25,48z"/>
  </g>
  <path class="fil0" d="M18790 24084c-117,374 86,811 -15,1172 -9,33 6,57 -11,112"/>
  <g id="_460925720">
   <path class="fil12" d="M18828 24332c27,270 55,291 -4,566 -9,-241 -32,-328 -71,-559 -2,-21 13,-40 34,-42 21,-2 40,13 42,34z"/>
  </g>
  <path class="fil0" d="M18790 24336c20,203 73,326 34,562"/>
  <g id="_460925000">
   <path class="fil12" d="M18863 23867c116,-53 115,81 -23,192 7,-43 25,-88 34,-122 -10,-2 -19,-8 -25,-18 -11,-18 -4,-42 14,-52z"/>
  </g>
  <path class="fil0" d="M18882 23900c89,-52 -31,140 -42,159"/>
  <g id="_460924352">
   <path class="fil12" d="M18936 24790c54,287 86,907 181,1158 -132,-169 -227,-989 -255,-1175 5,-20 25,-33 46,-28 20,5 33,25 28,46z"/>
  </g>
  <path class="fil0" d="M18899 24781c0,1 95,560 100,621 10,120 41,148 34,327 -2,42 54,177 84,218"/>
  <g id="_460923344">
   <path class="fil12" d="M19015 25382c19,44 103,662 102,683 -5,-22 -43,-194 -54,-220 -120,-271 -50,-299 -113,-423 -11,-18 -6,-41 12,-52 18,-11 41,-6 52,12z"/>
  </g>
  <path class="fil0" d="M18983 25402c84,135 -35,243 99,430 18,25 36,196 36,233"/>
  <g id="_296498904">
   <path class="fil12" d="M19053 24929c168,437 266,462 182,934 -2,-516 -48,-437 -255,-912 -6,-20 5,-41 25,-48 20,-6 41,5 48,25z"/>
  </g>
  <path class="fil0" d="M19017 24940c131,420 288,356 218,923"/>
  <g id="_296497992">
   <path class="fil12" d="M19150 25122c191,403 213,603 34,1018 90,-456 125,-547 -100,-979 -11,-18 -5,-41 13,-52 18,-11 41,-5 52,13z"/>
  </g>
  <path class="fil0" d="M19117 25142c148,251 193,478 135,764 -8,42 -52,190 -68,234"/>
  <g id="_296497512">
   <path class="fil12" d="M18929 24924c-37,-41 -61,-91 -29,-135 3,0 5,0 8,0 -85,-284 -179,-706 -26,-754 -109,115 -24,335 6,479 15,71 72,247 116,377 13,13 28,24 43,31 20,7 30,29 22,49 -5,13 -16,22 -28,24 3,6 6,13 9,19 -3,-4 -1,-1 -6,-8l-2 0c7,21 11,33 11,34l-52 14c-16,-19 -45,-77 -72,-130z"/>
  </g>
  <path class="fil0" d="M19033 24957c-96,-36 -172,-252 -73,-53 186,374 -102,-190 -94,-392 2,-53 -122,-406 17,-478"/>
  <g id="_296497224">
   <path class="fil12" d="M21351 23250c-657,-96 -937,-228 -1653,-236 -224,-3 -960,-19 -1226,73 103,4 269,-26 144,32 2,2 5,4 8,5 -5,0 -11,0 -18,0 -13,6 -28,12 -46,20 19,6 35,10 48,13l3 -2c-1,1 -2,1 -2,2 55,13 62,8 2,27l1 1 -2 0c-21,6 -49,16 -86,29 130,61 -39,48 -129,85 127,58 -157,50 -258,92 64,9 272,6 269,44 -10,8 -54,-8 -75,-16 -16,-2 -31,-4 -44,-4 -409,-21 -62,-49 79,-93 -62,-21 83,-65 146,-83 -94,-45 -22,-43 49,-63 -72,-15 -87,-30 -61,-47 -46,1 -88,0 -104,-9 -229,-136 1292,-165 1303,-165 719,1 990,127 1649,221 21,-1 39,16 39,37 1,21 -16,39 -37,39z"/>
  </g>
  <path class="fil0" d="M21350 23212c-181,6 -931,-227 -1348,-227 -408,0 -797,-17 -1201,18 -106,9 -656,118 -246,100 250,-11 -215,38 34,58 143,12 -221,34 -59,68 118,24 -290,56 -125,83 90,15 -604,93 -118,93 64,0 204,52 34,8"/>
  <g id="_296287216">
   <path class="fil12" d="M21302 23273c-251,-5 -1095,-201 -1213,-122 -5,64 -29,72 -92,85 -74,149 -484,15 -756,160 -257,138 -550,81 -821,16 262,36 559,86 800,-51 161,-91 755,-99 810,-197l0 0c-99,-214 1137,32 1249,35 20,-6 41,5 48,25 6,20 -5,41 -25,48z"/>
  </g>
  <path class="fil0" d="M21291 23237c-130,40 -708,-134 -998,-134 -396,0 -120,77 -312,108 -22,4 38,85 -343,85 -526,0 -291,168 -799,168 -75,0 -382,-21 -417,-50"/>
  <g id="_296286880">
   <path class="fil12" d="M20566 23164c-124,-18 -960,-119 -1069,-34 54,112 -374,254 -487,267 -161,19 -261,24 -421,-1 417,-1 552,-28 863,-241 -150,-208 1133,-64 1137,-64 20,6 31,28 25,48 -6,20 -28,31 -48,25zm-1070 -37l0 0 0 0 0 0z"/>
  </g>
  <path class="fil0" d="M20578 23128c-123,-38 -1270,-124 -1088,31 7,6 -187,89 -252,157 -73,77 -620,105 -649,81"/>
  <g id="_296285800">
   <path class="fil12" d="M21370 23244c-271,131 -680,-49 -660,77 -264,143 -472,145 -735,85 -17,-4 -83,-17 -102,-7 0,-1 0,-1 1,-1 -94,128 -635,91 -748,74 157,0 160,2 355,-14 366,-31 342,-166 633,-60l-1 -1c180,28 361,-109 536,-61 -44,-250 426,-28 681,-157 18,-11 41,-6 52,12 11,18 6,41 -12,52z"/>
  </g>
  <path class="fil0" d="M21350 23212c-217,135 -718,-76 -671,117 2,7 -535,119 -579,90 -16,-11 -224,-74 -246,-31 -47,93 -704,104 -729,84"/>
  <g id="_292533080">
   <path class="fil12" d="M20829 23292c-237,0 -37,33 -315,87 -52,10 -82,48 -121,43l0 0c79,-75 329,-197 436,-206 21,0 38,17 38,38 0,21 -17,38 -38,38z"/>
  </g>
  <path class="fil0" d="M20829 23253c-256,0 -86,74 -294,100 -78,10 -110,64 -143,68"/>
  <g id="_292534592">
   <path class="fil12" d="M20759 23214c-851,-151 -283,118 -1032,154 -445,21 -658,88 -1114,79 238,-34 347,-15 603,-74 189,-43 813,-51 899,-145 173,-187 390,-132 666,-86 20,6 31,28 25,48 -6,20 -28,31 -48,25z"/>
  </g>
  <path class="fil0" d="M20771 23178c-71,-22 -569,-83 -613,42 -61,176 -780,90 -931,171 -121,65 -565,41 -613,56"/>
  <g id="_292533536">
   <path class="fil12" d="M21565 23273c-1220,-301 -2358,-345 -3600,-118 -86,16 -133,28 -207,73 65,-58 118,-72 203,-91 1201,-270 2437,-218 3626,63 20,6 31,28 25,48 -6,20 -28,31 -48,25z"/>
  </g>
  <path class="fil0" d="M21576 23237c-187,-58 -1124,-241 -1308,-235 -132,4 -433,-17 -613,-17 -526,0 -961,65 -1461,127 -111,14 -359,40 -436,117"/>
  <g id="_292534040">
   <path class="fil12" d="M21568 23275c-544,-55 -995,-170 -1541,-201 -790,-45 -1297,-57 -2086,88 0,0 -183,62 -233,61 11,14 83,73 83,73 -141,-86 -151,-92 146,-157 759,-166 1324,-159 2088,-125 550,25 998,135 1543,185 21,0 38,17 38,38 0,21 -17,38 -38,38z"/>
  </g>
  <path class="fil0" d="M21568 23237c-365,0 -1105,-206 -1542,-193 -283,8 -939,-92 -1211,-11 -122,36 -968,97 -1067,168 -37,27 -102,-10 44,94"/>
  <g id="_294701824">
   <path class="fil12" d="M21504 23290c-398,29 -487,-47 -851,96 -141,55 -324,39 -470,28 130,-14 334,-16 452,-69 360,-162 449,-91 845,-127 20,-6 41,5 48,25 6,20 -5,41 -25,48z"/>
  </g>
  <path class="fil0" d="M21492 23253c-111,34 -617,-28 -791,82 -144,91 -360,72 -518,78"/>
  <g id="_294700624">
   <path class="fil12" d="M20274 23438c-259,-2 -131,-14 -386,37 243,-122 114,-84 386,-114 21,0 38,17 38,38 0,21 -17,38 -38,38z"/>
  </g>
  <path class="fil0" d="M20274 23400c-195,0 -208,3 -386,76"/>
  <g id="_294702184">
   <path class="fil12" d="M20818 23281c-76,30 -35,16 -123,40 49,-84 18,-46 96,-111 20,-7 42,3 49,22 7,20 -3,42 -22,49z"/>
  </g>
  <path class="fil0" d="M20804 23245c-37,14 -77,55 -109,76"/>
  <g id="_292535184">
   <path class="fil12" d="M20256 23458c-195,-48 -292,24 -517,22 212,-61 325,-132 540,-95 20,6 31,28 25,48 -6,20 -28,31 -48,25z"/>
  </g>
  <path class="fil0" d="M20267 23421c-185,-58 -363,59 -529,59"/>
  <g id="_292536840">
   <path class="fil12" d="M21553 23307c-234,73 -224,110 -480,98l0 0c219,-53 263,-91 460,-171 20,-6 41,7 47,27 6,20 -7,41 -27,47z"/>
  </g>
  <path class="fil0" d="M21543 23270c-150,41 -267,141 -470,134"/>
  <g id="_292535976">
   <path class="fil12" d="M19672 26572c-37,239 -213,661 -30,764 -229,16 -60,-642 -47,-764 0,-21 17,-38 38,-38 21,0 38,17 38,38z"/>
  </g>
  <path class="fil0" d="M19633 26572c0,250 -209,733 8,764"/>
  <g id="_293215144">
   <path class="fil12" d="M19646 26774c-26,182 -79,286 -46,453 -96,-78 -36,-335 -30,-453 0,-21 17,-38 38,-38 21,0 38,17 38,38z"/>
  </g>
  <path class="fil0" d="M19608 26774c0,154 -85,350 -8,453"/>
 </g>
</svg>
